<?xml version="1.0" encoding="UTF-8"?>
<svg width="48px" height="48px" viewBox="0 0 48 48" version="1.1" xmlns="http://www.w3.org/2000/svg" xmlns:xlink="http://www.w3.org/1999/xlink">
    <!-- Generator: Sketch 41.2 (35397) - http://www.bohemiancoding.com/sketch -->
    <title>评估-合格率</title>
    <desc>Created with Sketch.</desc>
    <defs></defs>
    <g id="Page-1" stroke="none" stroke-width="1" fill="none" fill-rule="evenodd">
        <g id="Artboard" transform="translate(-276.000000, -123.000000)" fill="#459EFF">
            <path d="M300,171 C313.254834,171 324,160.254834 324,147 C324,133.745166 313.254834,123 300,123 C286.745166,123 276,133.745166 276,147 C276,160.254834 286.745166,171 300,171 Z M311.433143,158.346525 L311.418776,136.926525 C311.418776,136.310525 311.174531,135.736525 310.729143,135.302525 C310.283755,134.868525 309.694694,134.630525 309.062531,134.630525 L290.370612,134.630525 C289.063184,134.630525 288,135.666525 288,136.940525 L288,158.570525 C288,158.722775 288.043102,158.864525 288.114939,158.990525 C288.416653,159.928525 289.307429,160.614525 290.370612,160.614525 L309.062531,160.614525 C310.298122,160.614525 311.318204,159.690525 311.418776,158.512775 C311.433143,158.458525 311.433143,158.402525 311.433143,158.346525 Z M308.63151,159.340525 L290.255673,159.340525 C289.910857,159.340525 289.350531,158.920525 289.350531,158.108525 L289.465469,137.094525 C289.465469,136.394525 290.011429,136.030525 290.370612,136.030525 L309.062531,136.030525 C309.809633,136.030525 310.010776,136.786525 310.010776,136.954525 L310.010776,156.792525 L309.982041,157.968525 C309.967673,158.024525 309.967673,158.094525 309.967673,158.164525 C309.982041,159.016775 309.033796,159.326525 308.63151,159.340525 Z M295.830204,147.986 L291.922286,147.986 C291.433796,147.986 291.03151,148.378 291.03151,148.854 C291.03151,149.33 291.433796,149.722 291.922286,149.722 L295.830204,149.722 C296.318694,149.722 296.72098,149.33 296.72098,148.854 C296.735347,148.378 296.333061,147.986 295.830204,147.986 Z M297.554286,146.222 C298.014041,146.222 298.387592,145.858 298.387592,145.41 C298.387592,144.962 298.014041,144.598 297.554286,144.598 L291.620571,144.598 C291.160816,144.598 290.787265,144.962 290.787265,145.41 C290.787265,145.858 291.160816,146.222 291.620571,146.222 L297.554286,146.222 Z M291.778612,141.42 C291.318857,141.42 290.945306,141.784 290.945306,142.232 C290.945306,142.68 291.318857,143.044 291.778612,143.044 L299.996735,143.044 C300.45649,143.044 300.830041,142.68 300.830041,142.232 C300.830041,141.784 300.45649,141.42 299.996735,141.42 L291.778612,141.42 Z M291.563102,140.188 L302.669061,140.188 C303.114449,140.188 303.473633,139.838 303.473633,139.404 C303.473633,138.97 303.114449,138.62 302.669061,138.62 L291.563102,138.62 C291.117714,138.62 290.758531,138.97 290.758531,139.404 C290.772898,139.838 291.132082,140.188 291.563102,140.188 Z M305.534307,153.613079 C305.534307,154.40993 305.827508,154.807919 306.413781,154.807919 C307.003679,154.807919 307.299169,154.394694 307.299169,153.568849 C307.299169,153.181841 307.22052,152.883381 307.063685,152.675335 C306.906902,152.466634 306.697634,152.362296 306.435947,152.362296 C305.834541,152.362296 305.534307,152.779673 305.534307,153.613079 Z M304.322598,153.673753 C304.322598,152.965566 304.519638,152.401999 304.914759,151.983503 C305.308801,151.564994 305.834541,151.355752 306.491375,151.355752 C307.125581,151.355752 307.618611,151.544023 307.971265,151.919974 C308.323301,152.2959 308.499846,152.825664 308.499846,153.508188 C308.499846,154.208802 308.301636,154.768318 307.907723,155.186815 C307.513039,155.605864 306.990912,155.815118 306.342139,155.815118 C305.733687,155.815118 305.244719,155.618721 304.875673,155.225875 C304.50615,154.833043 304.322598,154.316007 304.322598,153.673753 Z M307.22754,147.123075 L301.655505,155.698566 L300.267135,155.698566 L305.827521,147.123075 L307.22754,147.123075 Z M300.228074,149.263875 C300.228074,150.057114 300.519462,150.454099 301.102366,150.454099 C301.695659,150.454099 301.992935,150.040219 301.992935,149.214284 C301.992935,148.414025 301.709069,148.013632 301.141337,148.013632 C300.532255,148.013632 300.228074,148.430379 300.228074,149.263875 Z M299.011067,149.325115 C299.011067,148.623961 299.205086,148.062593 299.594473,147.640008 C299.983255,147.218104 300.510166,147.007088 301.174599,147.007088 C301.80883,147.007088 302.301796,147.198805 302.654501,147.581751 C303.006525,147.965262 303.182504,148.495116 303.182504,149.170067 C303.182504,149.863005 302.987277,150.419102 302.596141,150.835193 C302.205147,151.252597 301.683444,151.460643 301.030621,151.460643 C300.418132,151.460643 299.927943,151.265429 299.561262,150.874267 C299.19408,150.483196 299.011067,149.96679 299.011067,149.325115 Z" id="评估-合格率"></path>
        </g>
    </g>
</svg>