<?xml version="1.0" encoding="UTF-8"?>
<svg width="48px" height="48px" viewBox="0 0 48 48" version="1.1" xmlns="http://www.w3.org/2000/svg" xmlns:xlink="http://www.w3.org/1999/xlink">
    <!-- Generator: Sketch 41.2 (35397) - http://www.bohemiancoding.com/sketch -->
    <title>评估</title>
    <desc>Created with Sketch.</desc>
    <defs></defs>
    <g id="Page-1" stroke="none" stroke-width="1" fill="none" fill-rule="evenodd">
        <g id="Artboard" transform="translate(-276.000000, -49.000000)" fill="#459EFF">
            <path d="M300,97 C313.254834,97 324,86.254834 324,73 C324,59.745166 313.254834,49 300,49 C286.745166,49 276,59.745166 276,73 C276,86.254834 286.745166,97 300,97 Z M311.433143,84.346525 L311.418776,62.926525 C311.418776,62.310525 311.174531,61.736525 310.729143,61.302525 C310.283755,60.868525 309.694694,60.630525 309.062531,60.630525 L290.370612,60.630525 C289.063184,60.630525 288,61.666525 288,62.940525 L288,84.570525 C288,84.722775 288.043102,84.864525 288.114939,84.990525 C288.416653,85.928525 289.307429,86.614525 290.370612,86.614525 L309.062531,86.614525 C310.298122,86.614525 311.318204,85.690525 311.418776,84.512775 C311.433143,84.458525 311.433143,84.402525 311.433143,84.346525 Z M308.63151,85.340525 L290.255673,85.340525 C289.910857,85.340525 289.350531,84.920525 289.350531,84.108525 L289.465469,63.094525 C289.465469,62.394525 290.011429,62.030525 290.370612,62.030525 L309.062531,62.030525 C309.809633,62.030525 310.010776,62.786525 310.010776,62.954525 L310.010776,82.792525 L309.982041,83.968525 C309.967673,84.024525 309.967673,84.094525 309.967673,84.164525 C309.982041,85.016775 309.033796,85.326525 308.63151,85.340525 Z M295.830204,73.986 L291.922286,73.986 C291.433796,73.986 291.03151,74.378 291.03151,74.854 C291.03151,75.33 291.433796,75.722 291.922286,75.722 L295.830204,75.722 C296.318694,75.722 296.72098,75.33 296.72098,74.854 C296.735347,74.378 296.333061,73.986 295.830204,73.986 Z M297.554286,72.222 C298.014041,72.222 298.387592,71.858 298.387592,71.41 C298.387592,70.962 298.014041,70.598 297.554286,70.598 L291.620571,70.598 C291.160816,70.598 290.787265,70.962 290.787265,71.41 C290.787265,71.858 291.160816,72.222 291.620571,72.222 L297.554286,72.222 Z M291.778612,67.42 C291.318857,67.42 290.945306,67.784 290.945306,68.232 C290.945306,68.68 291.318857,69.044 291.778612,69.044 L299.996735,69.044 C300.45649,69.044 300.830041,68.68 300.830041,68.232 C300.830041,67.784 300.45649,67.42 299.996735,67.42 L291.778612,67.42 Z M291.563102,66.188 L302.669061,66.188 C303.114449,66.188 303.473633,65.838 303.473633,65.404 C303.473633,64.97 303.114449,64.62 302.669061,64.62 L291.563102,64.62 C291.117714,64.62 290.758531,64.97 290.758531,65.404 C290.772898,65.838 291.132082,66.188 291.563102,66.188 Z M305.313192,73.13235 C305.169518,72.99235 304.939641,72.99235 304.795967,73.13235 L298.301927,79.46035 C298.258824,79.50235 298.23009,79.54435 298.215722,79.60035 L297.52609,81.72835 C297.439886,82.00835 297.698498,82.27435 297.985845,82.1746 L300.169682,81.50435 C300.225355,81.49035 300.28462,81.46235 300.327722,81.42035 L306.821763,75.09235 C306.965437,74.95235 306.965437,74.72835 306.821763,74.57435 L305.313192,73.13235 Z M307.583233,71.39635 C307.308457,71.11635 306.848702,71.11635 306.577518,71.39635 L305.988457,71.95635 C305.844784,72.09635 305.844784,72.32035 305.988457,72.47435 L307.482661,73.93035 C307.626335,74.07035 307.856212,74.07035 308.014253,73.93035 L308.330335,73.62235 C308.746988,73.20235 308.746988,72.54435 308.330335,72.12435 L307.583233,71.39635 Z" id="评估"></path>
        </g>
    </g>
</svg>