<?xml version="1.0" encoding="UTF-8"?>
<svg width="48px" height="48px" viewBox="0 0 48 48" version="1.1" xmlns="http://www.w3.org/2000/svg" xmlns:xlink="http://www.w3.org/1999/xlink">
    <!-- Generator: Sketch 41.2 (35397) - http://www.bohemiancoding.com/sketch -->
    <title>质量</title>
    <desc>Created with Sketch.</desc>
    <defs></defs>
    <g id="Page-1" stroke="none" stroke-width="1" fill="none" fill-rule="evenodd">
        <g id="Artboard" transform="translate(-192.000000, -49.000000)" fill="#1ABC9C">
            <path d="M216,97 C229.254834,97 240,86.254834 240,73 C240,59.745166 229.254834,49 216,49 C202.745166,49 192,59.745166 192,73 C192,86.254834 202.745166,97 216,97 Z M221.197471,64.4307692 C221.69706,64.4307692 222.102564,64.0252647 222.102564,63.525641 C222.102564,63.0260173 221.69706,62.6205128 221.197471,62.6205128 L220.200027,62.6205128 C219.781865,60.5550173 217.955274,59 215.766667,59 C213.57806,59 211.751504,60.5550173 211.333342,62.6205128 L210.335897,62.6205128 C209.836274,62.6205128 209.430769,63.0260173 209.430769,63.525641 C209.430769,64.0252647 209.836274,64.4307692 210.335897,64.4307692 L221.197471,64.4307692 Z M223.912821,63.525641 C223.912821,64.0252647 224.318325,64.4307692 224.817949,64.4307692 C225.317572,64.4307692 225.723112,64.8362737 225.723112,65.3358974 L225.723112,83.4384615 C225.723112,83.9362821 225.317572,84.3435897 224.817949,84.3435897 L206.715385,84.3435897 C206.217564,84.3435897 205.810256,83.9362821 205.810256,83.4384615 L205.810256,65.3358974 C205.810256,64.8362737 206.217564,64.4307692 206.715385,64.4307692 C207.215008,64.4307692 207.620513,64.0252647 207.620513,63.525641 C207.620513,63.0260173 207.215008,62.6205128 206.715385,62.6205128 C205.218317,62.6205128 204,63.8388295 204,65.3358974 L204,83.4384615 C204,84.9355294 205.218317,86.1538462 206.715385,86.1538462 L224.817949,86.1538462 C226.315017,86.1538462 227.533333,84.9355294 227.533333,83.4384615 L227.533333,65.3358974 C227.533333,63.8388295 226.315017,62.6205128 224.817949,62.6205128 C224.318325,62.6205128 223.912821,63.0260173 223.912821,63.525641 Z M221.197471,80.7230769 C221.69706,80.7230769 222.102564,80.3175371 222.102564,79.8179487 C222.102564,79.318325 221.69706,78.9128205 221.197471,78.9128205 L210.335897,78.9128205 C209.836274,78.9128205 209.430769,79.318325 209.430769,79.8179487 C209.430769,80.3175371 209.836274,80.7230769 210.335897,80.7230769 L221.197471,80.7230769 Z M221.197471,75.2923077 C221.69706,75.2923077 222.102564,74.8868032 222.102564,74.3871795 C222.102564,73.8875558 221.69706,73.4820159 221.197471,73.4820159 L210.335897,73.4820159 C209.836274,73.4820159 209.430769,73.8875558 209.430769,74.3871795 C209.430769,74.8868032 209.836274,75.2923077 210.335897,75.2923077 L221.197471,75.2923077 Z M221.197471,69.8615385 C221.69706,69.8615385 222.102564,69.456034 222.102564,68.9564103 C222.102564,68.4567866 221.69706,68.0512821 221.197471,68.0512821 L210.335897,68.0512821 C209.836274,68.0512821 209.430769,68.4567866 209.430769,68.9564103 C209.430769,69.456034 209.836274,69.8615385 210.335897,69.8615385 L221.197471,69.8615385 Z" id="质量"></path>
        </g>
    </g>
</svg>