<svg xmlns="http://www.w3.org/2000/svg" xmlns:xlink="http://www.w3.org/1999/xlink" preserveAspectRatio="xMidYMid" width="24" height="24" viewBox="0 0 24 24">
  <defs>
    <style>
      .cls-1 {
        fill: #ff737a;
        fill-rule: evenodd;
      }
    </style>
  </defs>
  <path d="M16.164,11.630 C16.164,11.010 15.667,10.515 15.047,10.515 L12.813,10.515 L12.813,6.115 C12.813,5.496 12.316,5.000 11.695,5.000 C11.075,5.000 10.578,5.496 10.578,6.115 L10.578,10.515 L8.468,10.515 C7.848,10.515 7.351,11.010 7.351,11.630 L7.351,12.745 L16.226,12.745 L16.226,11.630 L16.164,11.630 L16.164,11.630 ZM16.164,13.432 C15.978,13.432 7.289,13.432 7.289,13.432 C7.289,13.432 6.669,20.000 4.000,20.000 L7.165,20.000 C8.406,20.000 8.965,16.406 8.965,16.406 C8.965,16.406 9.523,19.628 9.027,20.000 L10.765,20.000 C10.702,20.000 10.765,20.000 10.951,20.000 C11.820,19.876 11.944,15.910 11.944,15.910 C11.944,15.910 12.813,19.938 12.688,19.938 C12.254,19.938 11.385,19.938 10.951,19.938 L10.951,19.938 L13.495,19.938 C13.371,19.938 13.495,19.938 13.681,19.938 C14.488,19.752 14.550,16.840 14.550,16.840 C14.550,16.840 14.923,19.938 14.798,19.938 C14.488,19.938 13.992,19.938 13.681,19.938 L13.619,19.938 L15.109,19.938 C17.343,20.000 17.467,16.902 16.164,13.432 L16.164,13.432 Z" class="cls-1"/>
</svg>
