<?xml version="1.0" encoding="UTF-8"?>
<svg width="48px" height="48px" viewBox="0 0 48 48" version="1.1" xmlns="http://www.w3.org/2000/svg" xmlns:xlink="http://www.w3.org/1999/xlink">
    <!-- Generator: Sketch 41.2 (35397) - http://www.bohemiancoding.com/sketch -->
    <title>安全</title>
    <desc>Created with Sketch.</desc>
    <defs></defs>
    <g id="Page-1" stroke="none" stroke-width="1" fill="none" fill-rule="evenodd">
        <g id="Artboard" transform="translate(-25.000000, -49.000000)" fill="#FF9500">
            <path d="M49,97 C62.254834,97 73,86.254834 73,73 C73,59.745166 62.254834,49 49,49 C35.745166,49 25,59.745166 25,73 C25,86.254834 35.745166,97 49,97 Z M44.4953393,79.6028541 L55.9077179,79.6028541 L55.9077179,78.0969609 L44.4953393,78.0969609 L44.4953393,79.6028541 Z M44.4953393,74.1813257 L55.9077179,74.1813257 L55.9077179,72.6754324 L44.4953393,72.6754324 L44.4953393,74.1813257 Z M44.4953393,68.5049057 L55.9077179,68.5049057 L55.9077179,66.9990124 L44.4953393,66.9990124 L44.4953393,68.5049057 Z M40.3835631,78.8506894 C40.3835631,79.5965991 41.0110364,80.2017711 41.7862482,80.2017711 C42.5597999,80.2017711 43.1889332,79.5965991 43.1889332,78.8506894 C43.1889332,78.1047796 42.5597999,77.4996076 41.7862482,77.4996076 C41.0110364,77.4996076 40.3835631,78.1047796 40.3835631,78.8506894 Z M40.3835631,73.4291609 C40.3835631,74.1750707 41.0110364,74.7802427 41.7862482,74.7802427 C42.5597999,74.7802427 43.1889332,74.1750707 43.1889332,73.4291609 C43.1889332,72.6832512 42.5597999,72.0796429 41.7862482,72.0796429 C41.0110364,72.0796429 40.3835631,72.6832512 40.3835631,73.4291609 Z M40.3835631,67.9560287 C40.3835631,68.7019384 41.0110364,69.3071105 41.7862482,69.3071105 C42.5597999,69.3071105 43.1889332,68.7019384 43.1889332,67.9560287 C43.1889332,67.2101189 42.5597999,66.6065106 41.7862482,66.6065106 C41.0110364,66.6065106 40.3835631,67.2101189 40.3835631,67.9560287 Z M53.7779606,63.7933207 C53.7779606,64.2905938 53.2882658,64.6924781 52.6807122,64.6924781 L45.557728,64.6924781 C44.9518345,64.6924781 44.4604797,64.2905938 44.4604797,63.7933207 L44.4604797,61.5430814 C44.4604797,61.0458083 44.9518345,60.643924 45.557728,60.643924 L52.6807122,60.643924 C53.2866058,60.643924 53.7779606,61.0458083 53.7779606,61.5430814 L53.7779606,63.7933207 Z M60.1441099,61.7964093 L54.7312284,61.7964093 L54.7312284,63.6979318 C54.7312284,63.7323343 54.7279046,63.7667369 54.7245808,63.7995757 L58.4423013,63.7995757 C58.9142873,63.7995757 59.2965295,64.1686212 59.2965295,64.623673 L59.2965295,81.9844485 C59.2965295,82.4410641 58.9142873,82.8101096 58.4423013,82.8101096 L39.8520366,82.8101096 C39.3783887,82.8101096 38.9944846,82.4395004 38.9944846,81.9844485 L38.9944846,64.623673 C38.9944846,64.1686212 39.3783887,63.7995757 39.8520366,63.7995757 L43.5680952,63.7995757 C43.5631095,63.7667369 43.5614475,63.7323343 43.5614475,63.6979318 L43.5614475,61.7964093 L38.150228,61.7964093 C37.6765801,61.7964093 37.292676,62.1670185 37.292676,62.6205066 L37.292676,83.9891787 C37.292676,84.4442305 37.6765801,84.813276 38.150228,84.813276 L60.1441099,84.813276 C60.6160959,84.813276 61,84.4442305 61,83.9891787 L61,62.6205066 C61,62.1670185 60.6160959,61.7964093 60.1441099,61.7964093 Z" id="安全"></path>
        </g>
    </g>
</svg>