<?xml version="1.0" encoding="UTF-8"?>
<svg width="48px" height="48px" viewBox="0 0 48 48" version="1.1" xmlns="http://www.w3.org/2000/svg" xmlns:xlink="http://www.w3.org/1999/xlink">
    <!-- Generator: Sketch 41.2 (35397) - http://www.bohemiancoding.com/sketch -->
    <title>汇总</title>
    <desc>Created with Sketch.</desc>
    <defs></defs>
    <g id="Page-1" stroke="none" stroke-width="1" fill="none" fill-rule="evenodd">
        <g id="Artboard" transform="translate(-108.000000, -49.000000)" fill="#3CC0FC">
            <path d="M132,97 C145.254834,97 156,86.254834 156,73 C156,59.745166 145.254834,49 132,49 C118.745166,49 108,59.745166 108,73 C108,86.254834 118.745166,97 132,97 Z M134.01875,63.0375 L134.01875,60 L130.98125,60 L130.98125,63.0375 L119,63.0375 L119,66.075 L120.51875,66.075 L120.51875,81.2625 L129.96875,81.2625 L124.0625,85.81875 L125.075,87 L132.33125,81.09375 L139.5875,87 L140.598313,85.81875 L134.8625,81.09375 L144.479562,81.09375 L144.479562,65.90625 L146,65.90625 L146,63.0375 L134.01875,63.0375 Z M122.0375,79.575 L142.9625,79.575 L142.9625,66.075 L122.0375,66.075 L122.0375,79.575 Z M126.425,76.5375 L126.425,71.98125 L130.98125,71.98125 C130.98125,69.7875 129.125,68.1 126.93125,68.1 C124.7375,68.1 122.879563,69.95625 122.879563,72.15 C123.05,74.34375 124.23125,76.5375 126.425,76.5375 Z M127.942063,78.05625 C130.30625,78.05625 132.5,75.69375 132.5,73.5 L127.942063,73.5 L127.942063,78.05625 Z M139.925,68.94375 L135.535813,68.94375 L135.535813,70.4625 L140.09375,70.4625 L140.09375,68.94375 L139.925,68.94375 Z M139.925,71.98125 L135.535813,71.98125 L135.535813,73.5 L140.09375,73.5 L140.09375,71.98125 L139.925,71.98125 Z M139.925,75.01875 L135.535813,75.01875 L135.535813,76.5375 L140.09375,76.5375 L140.09375,75.01875 L139.925,75.01875 Z" id="汇总"></path>
        </g>
    </g>
</svg>