<?xml version="1.0" encoding="UTF-8"?>
<svg width="48px" height="48px" viewBox="0 0 48 48" version="1.1" xmlns="http://www.w3.org/2000/svg" xmlns:xlink="http://www.w3.org/1999/xlink">
    <!-- Generator: Sketch 41.2 (35397) - http://www.bohemiancoding.com/sketch -->
    <title>评估-评分</title>
    <desc>Created with Sketch.</desc>
    <defs></defs>
    <g id="Page-1" stroke="none" stroke-width="1" fill="none" fill-rule="evenodd">
        <g id="Artboard" transform="translate(-276.000000, -197.000000)" fill="#459EFF">
            <path d="M300,245 C313.254834,245 324,234.254834 324,221 C324,207.745166 313.254834,197 300,197 C286.745166,197 276,207.745166 276,221 C276,234.254834 286.745166,245 300,245 Z M311.433143,232.346525 L311.418776,210.926525 C311.418776,210.310525 311.174531,209.736525 310.729143,209.302525 C310.283755,208.868525 309.694694,208.630525 309.062531,208.630525 L290.370612,208.630525 C289.063184,208.630525 288,209.666525 288,210.940525 L288,232.570525 C288,232.722775 288.043102,232.864525 288.114939,232.990525 C288.416653,233.928525 289.307429,234.614525 290.370612,234.614525 L309.062531,234.614525 C310.298122,234.614525 311.318204,233.690525 311.418776,232.512775 C311.433143,232.458525 311.433143,232.402525 311.433143,232.346525 Z M308.63151,233.340525 L290.255673,233.340525 C289.910857,233.340525 289.350531,232.920525 289.350531,232.108525 L289.465469,211.094525 C289.465469,210.394525 290.011429,210.030525 290.370612,210.030525 L309.062531,210.030525 C309.809633,210.030525 310.010776,210.786525 310.010776,210.954525 L310.010776,230.792525 L309.982041,231.968525 C309.967673,232.024525 309.967673,232.094525 309.967673,232.164525 C309.982041,233.016775 309.033796,233.326525 308.63151,233.340525 Z M295.830204,221.986 L291.922286,221.986 C291.433796,221.986 291.03151,222.378 291.03151,222.854 C291.03151,223.33 291.433796,223.722 291.922286,223.722 L295.830204,223.722 C296.318694,223.722 296.72098,223.33 296.72098,222.854 C296.735347,222.378 296.333061,221.986 295.830204,221.986 Z M297.554286,220.222 C298.014041,220.222 298.387592,219.858 298.387592,219.41 C298.387592,218.962 298.014041,218.598 297.554286,218.598 L291.620571,218.598 C291.160816,218.598 290.787265,218.962 290.787265,219.41 C290.787265,219.858 291.160816,220.222 291.620571,220.222 L297.554286,220.222 Z M291.778612,215.42 C291.318857,215.42 290.945306,215.784 290.945306,216.232 C290.945306,216.68 291.318857,217.044 291.778612,217.044 L299.996735,217.044 C300.45649,217.044 300.830041,216.68 300.830041,216.232 C300.830041,215.784 300.45649,215.42 299.996735,215.42 L291.778612,215.42 Z M291.563102,214.188 L302.669061,214.188 C303.114449,214.188 303.473633,213.838 303.473633,213.404 C303.473633,212.97 303.114449,212.62 302.669061,212.62 L291.563102,212.62 C291.117714,212.62 290.758531,212.97 290.758531,213.404 C290.772898,213.838 291.132082,214.188 291.563102,214.188 Z M306.12214,227.607583 C306.227723,228.096417 306.320473,228.539167 306.400973,228.93525 C306.438307,229.102083 306.47214,229.2695 306.503057,229.436333 C306.533973,229.603167 306.563723,229.754833 306.59114,229.891333 C306.61914,230.02725 306.642473,230.143333 306.66114,230.239583 C306.679807,230.335833 306.692057,230.395917 306.698473,230.420417 C306.71714,230.544083 306.68914,230.626333 306.615057,230.666583 C306.540973,230.706833 306.456973,230.72725 306.364223,230.72725 C306.333307,230.72725 306.28839,230.716167 306.229473,230.694583 C306.170557,230.673 306.12564,230.656083 306.094723,230.64325 L303.669223,229.232167 C303.22939,229.492333 302.829807,229.7245 302.470473,229.928667 C302.315307,230.015583 302.162473,230.101917 302.010223,230.188833 C301.858557,230.275167 301.72089,230.355667 301.59664,230.430333 C301.472973,230.504417 301.36564,230.56625 301.275807,230.615833 C301.185973,230.665417 301.12589,230.696333 301.09439,230.708583 C301.032557,230.7395 300.968973,230.750583 300.904223,230.74125 C300.83889,230.731917 300.779973,230.708583 300.727473,230.671833 C300.674973,230.6345 300.63589,230.589583 300.61139,230.537083 C300.586307,230.484583 300.580473,230.430333 300.592723,230.374333 C300.59914,230.349833 300.614307,230.289167 300.63939,230.1935 C300.66389,230.097833 300.69189,229.982917 300.722807,229.849917 C300.753723,229.716917 300.789307,229.569917 300.829557,229.408917 C300.869807,229.247917 300.911807,229.084 300.954973,228.916583 C301.047723,228.53275 301.153307,228.099917 301.27114,227.616917 C300.90539,227.301333 300.576973,227.019583 300.28589,226.77225 C300.162223,226.666667 300.039723,226.562833 299.918973,226.46075 C299.798223,226.358667 299.689723,226.265917 299.593473,226.1825 C299.497223,226.099083 299.418473,226.030833 299.35664,225.978333 C299.294807,225.925833 299.26039,225.896083 299.254557,225.89025 C299.180473,225.822 299.11689,225.746167 299.063807,225.66275 C299.011307,225.57875 298.99089,225.494167 299.003723,225.40725 C299.015973,225.320333 299.05039,225.252667 299.105807,225.203083 C299.161807,225.1535 299.22364,225.122583 299.29189,225.110333 L302.163057,224.850167 L303.231723,222.36225 C303.269057,222.263083 303.321557,222.177917 303.389807,222.10675 C303.458057,222.035583 303.550807,222 303.66864,222 C303.730473,222 303.784723,222.014 303.83139,222.042 C303.878057,222.07 303.916557,222.102667 303.947473,222.139417 C303.97839,222.17675 304.00464,222.2135 304.026223,222.250833 C304.047807,222.288167 304.064723,222.319083 304.077557,222.343583 L305.118223,224.8315 L307.989973,225.101 C308.11364,225.131917 308.200557,225.16925 308.25014,225.212417 C308.299723,225.255583 308.324223,225.323833 308.324223,225.416583 C308.324223,225.5035 308.297973,225.579333 308.245473,225.644083 C308.192973,225.709417 308.126473,225.788167 308.045973,225.880917 L306.12214,227.607583 Z" id="评估-评分"></path>
        </g>
    </g>
</svg>