<?xml version="1.0" encoding="UTF-8"?>
<svg width="48px" height="48px" viewBox="0 0 48 48" version="1.1" xmlns="http://www.w3.org/2000/svg" xmlns:xlink="http://www.w3.org/1999/xlink">
    <!-- Generator: Sketch 41.2 (35397) - http://www.bohemiancoding.com/sketch -->
    <title>质量闭水</title>
    <desc>Created with Sketch.</desc>
    <defs></defs>
    <g id="Page-1" stroke="none" stroke-width="1" fill="none" fill-rule="evenodd">
        <g id="Artboard" transform="translate(-192.000000, -123.000000)" fill="#1ABC9C">
            <path d="M216,171 C229.254834,171 240,160.254834 240,147 C240,133.745166 229.254834,123 216,123 C202.745166,123 192,133.745166 192,147 C192,160.254834 202.745166,171 216,171 Z M221.197471,138.430769 C221.69706,138.430769 222.102564,138.025265 222.102564,137.525641 C222.102564,137.026017 221.69706,136.620513 221.197471,136.620513 L220.200027,136.620513 C219.781865,134.555017 217.955274,133 215.766667,133 C213.57806,133 211.751504,134.555017 211.333342,136.620513 L210.335897,136.620513 C209.836274,136.620513 209.430769,137.026017 209.430769,137.525641 C209.430769,138.025265 209.836274,138.430769 210.335897,138.430769 L221.197471,138.430769 Z M223.912821,137.525641 C223.912821,138.025265 224.318325,138.430769 224.817949,138.430769 C225.317572,138.430769 225.723112,138.836274 225.723112,139.335897 L225.723112,157.438462 C225.723112,157.936282 225.317572,158.34359 224.817949,158.34359 L206.715385,158.34359 C206.217564,158.34359 205.810256,157.936282 205.810256,157.438462 L205.810256,139.335897 C205.810256,138.836274 206.217564,138.430769 206.715385,138.430769 C207.215008,138.430769 207.620513,138.025265 207.620513,137.525641 C207.620513,137.026017 207.215008,136.620513 206.715385,136.620513 C205.218317,136.620513 204,137.83883 204,139.335897 L204,157.438462 C204,158.935529 205.218317,160.153846 206.715385,160.153846 L224.817949,160.153846 C226.315017,160.153846 227.533333,158.935529 227.533333,157.438462 L227.533333,139.335897 C227.533333,137.83883 226.315017,136.620513 224.817949,136.620513 C224.318325,136.620513 223.912821,137.026017 223.912821,137.525641 Z M219.467043,147.317091 C218.747385,145.604548 217.739573,144.06237 216.658529,142.563448 C216.285296,142.045599 215.89093,141.542705 215.484688,141.004291 C215.268691,141.280693 215.07074,141.52778 214.878975,141.780001 C213.831954,143.15488 212.856599,144.576603 212.053964,146.110017 C211.721981,146.745227 211.421948,147.393293 211.214178,148.074826 C210.9631,149.013192 210.848693,150.283061 211.450785,151.514331 C211.618841,151.843259 211.830218,152.152636 212.080759,152.44551 C212.756588,153.234626 213.61852,153.731866 214.627376,153.913569 C215.823392,154.129244 216.975536,153.92592 217.992662,153.235638 C219.016972,152.540743 219.661893,151.561174 219.909841,150.347403 C220.125376,149.291661 219.875849,148.290501 219.467043,147.317091 Z M214.734614,144.435583 C214.402631,145.611259 214.051051,146.781267 213.741734,147.963119 C213.561831,148.652374 213.458214,149.362715 213.524187,150.079751 C213.59171,150.815835 213.751018,151.535952 213.985062,152.238584 C214.005181,152.299846 214.018071,152.363668 214.050529,152.486177 C213.651007,152.147472 213.226226,151.948285 212.9329,151.55296 C212.594747,151.097921 212.361716,150.601693 212.242645,150.063279 C212.078717,149.324636 212.140563,148.583389 212.490086,147.905488 C213.01695,146.882155 213.580906,145.87839 214.134073,144.868986 C214.408309,144.368145 214.6939,143.872959 214.974351,143.375198 C214.989805,143.378799 215.00581,143.381894 215.021264,143.384974 C214.925873,143.735524 214.83309,144.086059 214.734614,144.435583 Z" id="质量闭水"></path>
        </g>
    </g>
</svg>