<svg xmlns="http://www.w3.org/2000/svg" xmlns:xlink="http://www.w3.org/1999/xlink" preserveAspectRatio="xMidYMid" width="24" height="24" viewBox="0 0 24 24">
  <defs>
    <style>
      .cls-1 {
        fill: #6cb2f3;
        fill-rule: evenodd;
      }
    </style>
  </defs>
  <path d="M12.500,20.000 C8.353,20.000 5.000,16.647 5.000,12.500 C5.000,8.353 8.353,5.000 12.500,5.000 C16.647,5.000 20.000,8.353 20.000,12.500 C20.000,16.647 16.647,20.000 12.500,20.000 L12.500,20.000 ZM11.618,16.691 L13.691,16.691 L13.691,15.191 L11.618,15.191 L11.618,16.691 L11.618,16.691 ZM12.588,7.912 C11.574,7.868 11.265,9.015 11.265,9.015 L11.750,14.573 L11.662,14.573 L11.750,14.573 L11.750,14.573 L13.559,14.573 L13.471,14.485 L13.956,9.059 C14.000,9.015 13.647,7.956 12.588,7.912 L12.588,7.912 Z" class="cls-1"/>
</svg>
