<svg xmlns="http://www.w3.org/2000/svg" xmlns:xlink="http://www.w3.org/1999/xlink" preserveAspectRatio="xMidYMid" width="24" height="24" viewBox="0 0 24 24">
  <defs>
    <style>
      .cls-1 {
        fill: #fc923c;
        fill-rule: evenodd;
      }
    </style>
  </defs>
  <path d="M12.000,5.000 C16.419,5.000 20.000,8.119 20.000,11.968 C20.000,13.864 19.129,15.585 17.718,16.840 C16.868,17.597 12.000,21.000 12.000,21.000 L12.000,18.935 C7.581,18.935 4.000,15.816 4.000,11.968 C4.000,8.119 7.581,5.000 12.000,5.000 L12.000,5.000 ZM15.954,13.039 C16.544,13.039 17.021,12.577 17.021,12.007 C17.021,11.437 16.544,10.975 15.954,10.975 C15.365,10.975 14.887,11.437 14.887,12.007 C14.887,12.577 15.365,13.039 15.954,13.039 L15.954,13.039 ZM11.969,13.039 C12.558,13.039 13.036,12.577 13.036,12.007 C13.036,11.437 12.558,10.975 11.969,10.975 C11.379,10.975 10.902,11.437 10.902,12.007 C10.902,12.577 11.379,13.039 11.969,13.039 L11.969,13.039 ZM7.952,13.039 C8.541,13.039 9.019,12.577 9.019,12.007 C9.019,11.437 8.541,10.975 7.952,10.975 C7.364,10.975 6.886,11.437 6.886,12.007 C6.886,12.577 7.364,13.039 7.952,13.039 L7.952,13.039 Z" class="cls-1"/>
</svg>
