<svg xmlns="http://www.w3.org/2000/svg" xmlns:xlink="http://www.w3.org/1999/xlink" preserveAspectRatio="xMidYMid" width="24" height="24" viewBox="0 0 24 24">
  <defs>
    <style>
      .cls-1 {
        fill: #6ab1f3;
        fill-rule: evenodd;
      }
    </style>
  </defs>
  <path d="M12.988,11.613 L13.621,8.668 C14.057,6.642 12.667,5.000 10.514,5.000 L9.040,5.000 C6.888,5.000 5.528,6.634 6.003,8.649 L6.704,11.625 C6.800,12.033 7.004,12.416 7.282,12.748 C7.510,13.087 7.644,13.436 7.644,13.779 C7.644,14.676 6.632,15.271 5.338,15.551 C3.399,16.169 2.000,17.926 2.000,20.000 L17.610,20.000 C17.610,17.840 16.087,16.022 14.021,15.479 C12.902,15.168 12.072,14.604 12.072,13.792 C12.072,13.455 12.201,13.112 12.429,12.789 C12.694,12.423 12.898,12.031 12.988,11.613 L12.988,11.613 ZM15.333,8.203 L15.333,9.271 L22.000,9.271 L22.000,8.203 L15.333,8.203 L15.333,8.203 L15.333,8.203 ZM15.333,12.475 L22.000,12.475 L22.000,11.407 L15.333,11.407 L15.333,12.475 L15.333,12.475 ZM18.667,14.610 L18.667,15.678 L22.000,15.678 L22.000,14.610 L18.667,14.610 L18.667,14.610 L18.667,14.610 Z" class="cls-1"/>
</svg>
