<?xml version="1.0" encoding="utf-8"?>
<!-- Generator: Adobe Illustrator 21.0.0, SVG Export Plug-In . SVG Version: 6.00 Build 0)  -->
<svg version="1.1" id="图层_1" xmlns="http://www.w3.org/2000/svg" xmlns:xlink="http://www.w3.org/1999/xlink" x="0px" y="0px"
	 viewBox="0 0 32 32" style="enable-background:new 0 0 32 32;" xml:space="preserve">
<style type="text/css">
	.st0{fill:#CE9F09;}
	.st1{fill:#FFCD2E;}
</style>
<path class="st0" d="M12.8,8.4c-0.1-0.8-0.8-1.4-1.6-1.4h-3c-0.9,0-1.6,0.7-1.6,1.6L6.6,10c0,0.9,0.8,1.6,1.6,1.6h2.8
	c0.4,0,0.8-0.2,1.1-0.4c0.2,0.1,0.5,0.2,0.7,0.2h11.3c0.8,0,1.5-0.7,1.5-1.5S25,8.4,24.2,8.4H12.9C12.9,8.4,12.8,8.4,12.8,8.4
	L12.8,8.4z"/>
<path class="st1" d="M5.2,11.1c-0.1-0.6,0.4-1.1,1-1.1h20c0.6,0,1.1,0.5,1,1.1l-1.1,12.3c-0.1,0.6-0.6,1.1-1.1,1.1H7.5
	c-0.6,0-1-0.5-1.1-1.1L5.2,11.1L5.2,11.1z"/>
</svg>
