<svg xmlns="http://www.w3.org/2000/svg" xmlns:xlink="http://www.w3.org/1999/xlink" preserveAspectRatio="xMidYMid" width="40" height="40" viewBox="0 0 40 40">
  <path d="M20.500,39.000 C10.283,39.000 2.000,30.717 2.000,20.500 C2.000,10.283 10.283,2.000 20.500,2.000 C30.717,2.000 39.000,10.283 39.000,20.500 C39.000,30.717 30.717,39.000 20.500,39.000 ZM20.500,5.000 C11.940,5.000 5.000,11.940 5.000,20.500 C5.000,29.060 11.940,36.000 20.500,36.000 C29.060,36.000 36.000,29.060 36.000,20.500 C36.000,11.940 29.060,5.000 20.500,5.000 ZM32.574,18.279 C32.272,18.606 31.869,18.771 31.467,18.771 L31.467,18.771 C31.085,18.771 30.703,18.623 30.406,18.327 C27.729,15.659 24.212,14.190 20.502,14.190 C16.784,14.190 13.265,15.657 10.595,18.323 C9.985,18.932 9.014,18.912 8.427,18.276 C7.840,17.640 7.861,16.630 8.471,16.021 C11.716,12.783 15.987,11.000 20.502,11.000 C25.006,11.000 29.277,12.785 32.528,16.024 C33.139,16.634 33.160,17.644 32.574,18.279 ZM20.501,16.316 C23.766,16.316 26.839,17.634 29.153,20.028 C29.754,20.649 29.757,21.659 29.160,22.284 C28.860,22.596 28.465,22.754 28.072,22.754 L28.072,22.754 C27.680,22.754 27.289,22.599 26.990,22.290 C25.255,20.494 22.951,19.505 20.501,19.505 C18.047,19.505 15.742,20.492 14.009,22.283 C13.409,22.904 12.438,22.901 11.841,22.277 C11.244,21.653 11.246,20.643 11.847,20.022 C14.158,17.632 17.231,16.316 20.501,16.316 ZM20.502,21.632 C22.517,21.632 24.450,22.524 25.806,24.078 C26.375,24.731 26.327,25.739 25.699,26.331 C25.407,26.608 25.038,26.744 24.670,26.744 L24.670,26.744 C24.253,26.744 23.837,26.568 23.534,26.221 C22.759,25.330 21.654,24.821 20.502,24.821 C19.330,24.821 18.254,25.315 17.471,26.214 C16.902,26.868 15.933,26.918 15.305,26.324 C14.677,25.732 14.629,24.724 15.198,24.073 C16.550,22.521 18.483,21.632 20.502,21.632 ZM20.502,27.147 C21.524,27.147 22.354,28.010 22.354,29.074 C22.354,30.138 21.524,31.000 20.502,31.000 C19.479,31.000 18.649,30.138 18.649,29.074 C18.649,28.010 19.479,27.147 20.502,27.147 Z" />
</svg>
