<svg xmlns="http://www.w3.org/2000/svg" xmlns:xlink="http://www.w3.org/1999/xlink" preserveAspectRatio="xMidYMid" width="27" height="32" viewBox="0 0 27 32">
  <defs>
    <style>
      .cls-1, .cls-2 {
        font-size: 32px;
      }

      .cls-2 {
        fill: #fff;
        text-anchor: middle;
        font-family: "FZYOUH_503L--GB1-4";
      }

      .cls-3 {
        fill: #e93030;
        fill-rule: evenodd;
      }
    </style>
  </defs>
  <g>
    <text x="337" y="261" class="cls-1"><tspan x="337" class="cls-2">登    录</tspan></text>
    <path d="M24.000,110.000 L24.000,104.000 C24.000,99.583 19.307,96.000 15.001,96.000 C10.692,96.000 6.000,99.583 6.000,104.000 L6.000,110.000 L2.000,110.000 L2.000,128.000 L28.000,128.000 L28.000,110.000 L24.000,110.000 ZM8.000,104.000 C8.000,100.324 11.415,98.000 15.000,98.000 C18.584,98.000 22.000,100.324 22.000,104.000 L22.000,110.000 L8.000,110.000 L8.000,104.000 ZM26.000,126.000 L4.000,126.000 L4.000,112.000 L26.000,112.000 L26.000,126.000 Z" class="cls-3"/>
    <path d="M27.000,32.000 L24.975,32.000 C24.982,31.833 25.000,31.669 25.000,31.500 C25.000,25.149 19.851,20.000 13.500,20.000 C7.149,20.000 2.000,25.149 2.000,31.500 C2.000,31.669 2.018,31.833 2.025,32.000 L-0.000,32.000 C-0.000,26.243 3.578,21.337 8.616,19.370 C5.414,17.626 3.240,14.220 3.240,10.305 C3.240,4.614 7.834,-0.000 13.500,-0.000 C19.166,-0.000 23.760,4.614 23.760,10.305 C23.760,14.220 21.586,17.626 18.384,19.370 C23.422,21.337 27.000,26.243 27.000,32.000 ZM21.600,10.305 C21.600,5.812 17.973,2.169 13.500,2.169 C9.026,2.169 5.400,5.812 5.400,10.305 C5.400,14.798 9.026,18.440 13.500,18.440 C17.973,18.440 21.600,14.798 21.600,10.305 Z" class="cls-3"/>
  </g>
</svg>
