<svg xmlns="http://www.w3.org/2000/svg" xmlns:xlink="http://www.w3.org/1999/xlink" preserveAspectRatio="xMidYMid" width="110" height="110" viewBox="0 0 110 110">
  <defs>
    <style>
      .cls-1 {
        fill: #01b6ad;
        fill-rule: evenodd;
      }
    </style>
  </defs>
  <path d="M55.000,110.000 C24.624,110.000 -0.000,85.376 -0.000,55.000 C-0.000,24.624 24.624,-0.000 55.000,-0.000 C85.376,-0.000 110.000,24.624 110.000,55.000 C110.000,85.376 85.376,110.000 55.000,110.000 ZM73.993,30.433 C73.993,29.788 73.218,29.002 72.558,29.002 L42.010,29.002 C41.665,28.974 41.350,29.114 41.092,29.339 L32.372,37.697 C32.314,37.753 32.257,37.781 32.228,37.837 C32.085,38.034 31.999,38.286 31.999,38.538 L31.999,76.627 C31.999,77.272 32.802,78.001 33.462,78.001 L45.251,78.001 C46.255,78.001 46.255,74.356 45.251,74.356 L35.427,74.356 L35.427,40.109 L41.579,40.109 C42.210,40.109 43.042,39.324 43.042,38.679 L43.042,32.395 L70.564,32.395 L70.564,49.926 C70.621,50.879 73.993,50.879 73.993,49.898 L73.993,30.433 ZM53.369,52.814 L38.625,52.814 C37.047,52.814 37.019,56.179 38.625,56.179 L53.369,56.179 C54.860,56.179 54.774,52.786 53.369,52.814 ZM65.904,47.513 C67.395,47.541 67.453,44.148 65.904,44.148 L39.371,44.148 C37.879,44.204 37.936,47.513 39.371,47.513 L65.904,47.513 ZM78.593,63.785 C76.931,62.103 75.177,60.763 73.379,59.803 C71.137,58.606 68.821,58.000 66.494,58.000 C64.036,58.000 61.639,58.606 59.369,59.801 C57.549,60.759 55.805,62.096 54.187,63.776 C51.674,66.382 50.242,69.022 49.992,69.501 C50.239,69.980 51.657,72.619 54.162,75.226 C55.776,76.905 57.518,78.242 59.341,79.201 C61.615,80.396 64.021,81.001 66.494,81.001 C68.805,81.001 71.110,80.396 73.346,79.201 C75.141,78.242 76.896,76.904 78.562,75.223 C81.136,72.626 82.706,69.996 82.992,69.500 C82.709,69.004 81.157,66.381 78.593,63.785 ZM70.031,66.387 C69.734,66.387 69.429,66.422 69.123,66.492 L70.267,70.326 L66.420,68.834 C66.271,69.234 66.196,69.650 66.196,70.073 C66.196,72.108 67.916,73.764 70.031,73.764 C71.558,73.764 72.870,72.894 73.486,71.646 C72.543,74.555 69.784,76.684 66.494,76.684 C62.432,76.684 59.126,73.461 59.126,69.499 C59.126,65.536 62.432,62.312 66.494,62.312 C70.555,62.312 73.859,65.536 73.859,69.499 C73.859,69.588 73.836,69.671 73.832,69.759 C73.663,67.875 72.033,66.387 70.031,66.387 Z" class="cls-1"/>
</svg>
