<svg xmlns="http://www.w3.org/2000/svg" xmlns:xlink="http://www.w3.org/1999/xlink" preserveAspectRatio="xMidYMid" width="110" height="110" viewBox="0 0 110 110">
  <defs>
    <style>
      .cls-1 {
        fill: #ff6b50;
        fill-rule: evenodd;
      }
    </style>
  </defs>
  <path d="M55.000,110.000 C24.624,110.000 -0.000,85.376 -0.000,55.000 C-0.000,24.624 24.624,-0.000 55.000,-0.000 C85.376,-0.000 110.000,24.624 110.000,55.000 C110.000,85.376 85.376,110.000 55.000,110.000 ZM80.842,72.031 L80.842,61.143 L80.842,59.889 L79.660,59.889 L65.967,59.889 L64.785,59.889 L64.785,61.143 L64.785,72.031 L64.785,73.294 L65.967,73.294 L79.660,73.294 L80.842,73.294 L80.842,72.031 ZM82.000,75.750 L39.501,75.750 L39.501,54.279 L41.539,54.279 L41.539,50.960 L63.112,36.327 L63.112,49.175 L58.241,49.175 L58.241,57.573 L69.226,57.573 L69.226,49.175 L64.432,49.175 L64.432,35.426 L65.240,34.878 L66.225,34.215 L65.786,33.067 L64.772,30.420 L64.222,29.000 L62.902,29.616 L34.755,42.872 L31.264,42.872 L31.264,54.279 L33.134,54.279 L33.134,75.750 L29.000,75.750 L29.000,80.000 L82.000,80.000 L82.000,75.750 ZM61.315,73.294 L61.315,72.031 L61.315,61.143 L61.315,59.889 L60.133,59.889 L46.440,59.889 L45.258,59.889 L45.258,61.143 L45.258,72.031 L45.258,73.294 L46.440,73.294 L60.133,73.294 L61.315,73.294 ZM51.113,70.760 L49.725,70.760 L47.622,64.079 L47.622,62.401 L48.486,62.401 L51.113,70.760 ZM47.622,70.769 L47.622,68.041 L48.478,70.769 L47.622,70.769 ZM51.122,62.401 L53.740,70.760 L52.356,70.760 L49.729,62.401 L51.122,62.401 ZM53.757,62.401 L56.375,70.760 L54.987,70.760 L52.364,62.401 L53.757,62.401 ZM56.388,62.401 L58.951,70.561 L58.951,70.760 L57.622,70.760 L55.000,62.401 L56.388,62.401 ZM58.946,62.401 L58.946,66.600 L57.622,62.401 L58.946,62.401 ZM41.539,47.436 L41.539,43.446 L43.942,45.813 L41.539,47.436 ZM44.230,41.661 L44.123,43.968 L42.579,42.443 L44.230,41.661 ZM47.773,43.212 L45.481,44.763 L45.615,41.839 L47.773,43.212 ZM48.964,39.438 L48.899,42.192 L46.423,40.624 L48.964,39.438 ZM52.287,40.152 L50.309,41.495 L50.365,39.081 L52.287,40.152 ZM54.755,36.705 L54.196,38.856 L53.645,39.230 L51.698,38.142 L54.755,36.705 ZM56.930,36.994 L55.950,37.670 L56.259,36.484 L56.930,36.994 ZM59.600,35.188 L58.181,36.153 C57.902,35.927 57.605,35.698 57.343,35.490 L59.475,34.487 C59.518,34.703 59.561,34.946 59.600,35.188 ZM62.730,32.952 L62.768,33.042 L60.404,34.644 C60.451,34.389 60.494,34.164 60.529,33.981 L62.730,32.952 ZM74.527,62.401 L75.911,62.401 L78.473,70.561 L78.473,70.760 L77.149,70.760 L74.527,62.401 ZM78.469,62.401 L78.469,66.600 L77.149,62.401 L78.469,62.401 ZM74.514,70.760 L71.887,62.401 L73.280,62.401 L75.894,70.760 L74.514,70.760 ZM71.878,70.760 L69.260,62.401 L70.645,62.401 L73.271,70.760 L71.878,70.760 ZM69.252,70.760 L67.154,64.079 L67.154,62.401 L68.009,62.401 L70.636,70.760 L69.252,70.760 ZM67.154,70.769 L67.154,68.041 L68.009,70.769 L67.154,70.769 Z" class="cls-1"/>
</svg>
