<svg xmlns="http://www.w3.org/2000/svg" xmlns:xlink="http://www.w3.org/1999/xlink" preserveAspectRatio="xMidYMid" width="110" height="110" viewBox="0 0 110 110">
  <defs>
    <style>
      .cls-1 {
        fill: #239bfa;
        fill-rule: evenodd;
      }
    </style>
  </defs>
  <path d="M55.000,110.000 C24.624,110.000 -0.000,85.376 -0.000,55.000 C-0.000,24.624 24.624,-0.000 55.000,-0.000 C85.376,-0.000 110.000,24.624 110.000,55.000 C110.000,85.376 85.376,110.000 55.000,110.000 ZM80.837,70.608 L76.132,55.376 C75.688,53.931 74.401,52.993 72.881,52.993 L65.979,52.993 L65.979,54.681 L69.952,54.681 C71.283,54.681 72.415,55.475 72.803,56.699 L75.233,67.906 C75.821,69.748 74.390,71.612 72.382,71.612 L37.618,71.612 C35.609,71.612 34.178,69.748 34.766,67.906 L37.196,56.699 C37.196,56.689 37.207,56.677 37.207,56.655 L48.658,67.818 L77.941,39.250 L66.412,28.000 L37.318,56.380 C37.318,56.380 37.318,56.380 37.329,56.369 L37.274,56.369 L37.274,52.993 L37.118,52.993 C35.598,52.993 34.311,53.931 33.867,55.376 L29.162,70.608 C28.830,71.678 29.007,72.726 29.673,73.619 C30.339,74.513 31.293,74.998 32.403,74.998 L77.597,74.998 C78.706,74.998 79.661,74.513 80.326,73.619 C80.992,72.726 81.170,71.678 80.837,70.608 ZM50.167,60.725 L48.703,62.148 L41.490,55.122 L42.955,53.688 L50.167,60.725 ZM47.349,49.409 L51.676,53.622 L50.212,55.056 L45.884,50.832 L47.349,49.409 ZM51.743,45.118 L56.070,49.342 L54.606,50.765 L50.278,46.552 L51.743,45.118 ZM56.137,40.838 L60.464,45.052 L59.000,46.486 L54.672,42.261 L56.137,40.838 ZM60.531,36.548 L64.859,40.772 L63.394,42.195 L59.066,37.982 L60.531,36.548 ZM64.925,32.268 L72.126,39.294 L70.662,40.717 L63.460,33.691 L64.925,32.268 Z" class="cls-1"/>
</svg>
