<svg xmlns="http://www.w3.org/2000/svg" xmlns:xlink="http://www.w3.org/1999/xlink" preserveAspectRatio="xMidYMid" width="110" height="110" viewBox="0 0 110 110">
  <defs>
    <style>
      .cls-1 {
        fill: #ffaf10;
        fill-rule: evenodd;
      }
    </style>
  </defs>
  <path d="M55.000,110.000 C24.624,110.000 -0.000,85.376 -0.000,55.000 C-0.000,24.624 24.624,-0.000 55.000,-0.000 C85.376,-0.000 110.000,24.624 110.000,55.000 C110.000,85.376 85.376,110.000 55.000,110.000 ZM44.273,33.324 C44.273,32.037 43.227,30.998 41.931,30.998 C40.635,30.998 39.588,32.037 39.588,33.324 L39.588,38.750 C39.588,40.037 40.635,41.076 41.931,41.076 C43.227,41.076 44.273,40.037 44.273,38.750 L44.273,33.324 ZM66.918,33.324 C66.918,32.037 65.871,30.998 64.575,30.998 C63.279,30.998 62.233,32.037 62.233,33.324 L62.233,38.750 C62.233,40.037 63.279,41.076 64.575,41.076 C65.871,41.076 66.918,40.037 66.918,38.750 L66.918,33.324 ZM75.507,54.681 L75.507,41.076 C75.507,38.936 73.758,37.200 71.603,37.200 L68.479,37.200 L68.479,38.750 C68.479,40.890 66.730,42.626 64.575,42.626 C62.420,42.626 60.671,40.890 60.671,38.750 L60.671,37.200 L45.835,37.200 L45.835,38.750 C45.835,40.890 44.086,42.626 41.931,42.626 C39.776,42.626 38.027,40.890 38.027,38.750 L38.027,37.200 L34.903,37.200 C32.748,37.200 30.999,38.936 30.999,41.076 L30.999,69.759 C30.999,71.899 32.748,73.635 34.903,73.635 L62.826,73.635 C64.989,77.992 69.502,81.000 74.726,81.000 C82.058,81.000 88.000,75.100 88.000,67.821 C88.000,60.805 82.472,55.084 75.507,54.681 ZM74.726,77.899 C69.127,77.899 64.575,73.379 64.575,67.821 C64.575,62.263 69.127,57.743 74.726,57.743 C80.325,57.743 84.877,62.263 84.877,67.821 C84.877,73.379 80.325,77.899 74.726,77.899 ZM78.630,66.658 L76.288,66.658 L76.288,61.232 C76.288,60.376 75.588,59.681 74.726,59.681 C73.864,59.681 73.164,60.376 73.164,61.232 L73.164,68.209 C73.164,69.064 73.864,69.759 74.726,69.759 L78.630,69.759 C79.492,69.759 80.192,69.064 80.192,68.209 C80.192,67.353 79.492,66.658 78.630,66.658 ZM55.478,58.464 C54.971,59.852 54.580,61.255 54.307,62.681 C54.034,64.100 53.885,65.426 53.870,66.658 L49.833,66.658 C50.052,63.898 50.700,61.247 51.785,58.697 C52.878,56.154 54.307,53.813 56.072,51.689 L47.264,51.689 L47.264,48.208 L59.953,48.208 L59.953,51.425 C58.977,52.270 58.118,53.301 57.360,54.534 C56.611,55.766 55.986,57.076 55.478,58.464 Z" class="cls-1"/>
</svg>
