<svg xmlns="http://www.w3.org/2000/svg" xmlns:xlink="http://www.w3.org/1999/xlink" preserveAspectRatio="xMidYMid" width="110" height="110" viewBox="0 0 110 110">
  <defs>
    <style>
      .cls-1 {
        fill: #01b6ad;
        fill-rule: evenodd;
      }
    </style>
  </defs>
  <path d="M55.000,110.000 C24.624,110.000 -0.000,85.376 -0.000,55.000 C-0.000,24.624 24.624,-0.000 55.000,-0.000 C85.376,-0.000 110.000,24.624 110.000,55.000 C110.000,85.376 85.376,110.000 55.000,110.000 ZM70.990,34.000 L57.499,34.000 L57.499,44.360 L70.990,44.360 L70.990,34.000 ZM81.467,40.000 C81.467,36.686 78.781,34.000 75.467,34.000 L73.989,34.000 L73.989,47.325 L54.501,47.325 L54.501,34.000 L35.000,34.000 C31.686,34.000 29.000,36.686 29.000,40.000 L29.000,69.484 C29.000,72.797 31.686,75.484 35.000,75.484 L75.467,75.484 C76.405,75.484 77.281,75.250 78.072,74.866 L73.202,69.894 L73.057,70.004 C71.987,70.448 70.806,70.695 69.555,70.695 C64.513,70.695 60.495,66.684 60.495,61.908 C60.495,57.133 64.513,53.262 69.555,53.262 C74.597,53.262 78.483,57.133 78.483,61.908 C78.483,64.047 77.726,66.032 76.406,67.573 L76.276,67.672 L80.852,72.083 C81.234,71.294 81.467,70.419 81.467,69.484 L81.467,40.000 ZM75.354,61.965 C75.354,58.863 72.813,56.350 69.539,56.350 C66.265,56.350 63.655,58.863 63.655,61.965 C63.655,65.065 66.265,67.579 69.539,67.579 C72.813,67.579 75.354,65.065 75.354,61.965 ZM82.687,73.851 L80.077,71.335 C79.368,72.443 78.426,73.381 77.308,74.086 L79.850,76.681 C80.242,77.072 80.877,77.072 81.268,76.681 L82.687,75.266 C83.079,74.875 83.079,74.242 82.687,73.851 ZM53.002,69.562 L50.004,69.562 L50.004,66.597 L39.510,66.597 L39.510,69.562 L36.512,69.562 L36.512,66.597 L33.514,66.597 L33.514,63.632 L36.512,63.632 L36.512,57.702 L33.514,57.702 L33.514,54.738 L36.512,54.738 L36.512,51.773 L39.510,51.773 L39.510,54.738 L50.004,54.738 L50.004,51.773 L53.002,51.773 L53.002,54.738 L56.000,54.738 L56.000,57.702 L53.002,57.702 L53.002,63.632 L56.000,63.632 L56.000,66.597 L53.002,66.597 L53.002,69.562 ZM50.004,57.702 L39.510,57.702 L39.510,63.632 L50.004,63.632 L50.004,57.702 Z" class="cls-1"/>
</svg>
