<svg xmlns="http://www.w3.org/2000/svg" xmlns:xlink="http://www.w3.org/1999/xlink" preserveAspectRatio="xMidYMid" width="110" height="110" viewBox="0 0 110 110">
  <defs>
    <style>
      .cls-1 {
        fill: #239bfa;
        fill-rule: evenodd;
      }
    </style>
  </defs>
  <path d="M55.000,110.000 C24.624,110.000 -0.000,85.376 -0.000,55.000 C-0.000,24.624 24.624,-0.000 55.000,-0.000 C85.376,-0.000 110.000,24.624 110.000,55.000 C110.000,85.376 85.376,110.000 55.000,110.000 ZM34.374,78.962 C34.374,79.879 35.511,81.000 36.442,81.000 L73.972,81.000 L64.460,72.745 C62.082,74.681 58.980,75.802 55.672,75.802 C47.918,75.802 41.714,69.687 41.714,62.145 C41.714,54.603 48.021,48.488 55.672,48.488 C63.426,48.488 69.629,54.603 69.629,62.145 C69.629,64.999 68.699,67.649 67.252,69.789 L75.936,77.433 L76.763,54.705 L55.052,36.461 L33.443,54.807 L34.374,78.962 ZM66.631,62.043 C66.631,56.030 61.669,51.138 55.569,51.138 C49.469,51.138 44.506,56.030 44.506,62.043 C44.506,68.056 49.469,72.948 55.569,72.948 C61.669,72.948 66.631,68.056 66.631,62.043 ZM56.189,29.429 C55.569,28.818 54.431,28.818 53.811,29.429 L25.999,53.482 L28.274,55.826 L55.052,33.098 L81.829,55.826 L84.001,53.482 L56.189,29.429 Z" class="cls-1"/>
</svg>
