<?xml version="1.0" encoding="utf-8"?>
<!-- Generator: Adobe Illustrator 19.0.0, SVG Export Plug-In . SVG Version: 6.00 Build 0)  -->
<svg version="1.1" id="图层_1" xmlns="http://www.w3.org/2000/svg" xmlns:xlink="http://www.w3.org/1999/xlink" x="0px" y="0px"
	 viewBox="-197 320.9 200 200" style="enable-background:new -197 320.9 200 200;" xml:space="preserve">
<style type="text/css">
	.st0{fill:#FFFFFF;}
</style>
<path class="st0" d="M-164.8,342L-164.8,342C-164.8,342-164.8,342-164.8,342L-164.8,342L-164.8,342 M-153.5,473.8h33.9v-22.6h-33.9
	V473.8L-153.5,473.8 M-40.5,330.7h-11.3v33.9h11.3V330.7L-40.5,330.7 M-142.2,330.7h-11.3v33.9h11.3L-142.2,330.7L-142.2,330.7
	 M-153.5,439.9h33.9v-22.6h-33.9V439.9L-153.5,439.9 M-29.3,342C-29.2,342-29.2,342-29.3,342L-29.3,342L-29.3,342L-29.3,342
	 M-63.1,439.9h22.6v-22.6h-22.6V439.9L-63.1,439.9 M-29.2,342v17c0,9.4-7.6,17-17,17s-17-7.6-17-17l0-17h-67.8v17
	c0,9.4-7.6,17-17,17c-9.4,0-17-7.6-17-17v-17c-12.5,0-22.6,10.2-22.6,22.7v124.1c0,12.5,10.2,22.8,22.7,22.8h135.5
	c12.5,0,22.7-10.2,22.7-22.7V364.7C-6.6,352.2-16.7,342.1-29.2,342L-29.2,342 M-18,489.2c0,6.2-5.1,11.3-11.3,11.3H-165
	c-6.2,0-11.3-5.1-11.3-11.3v-82.9c0-6.2,5.1-11.3,11.3-11.3h135.7c6.2,0,11.3,5.1,11.3,11.3V489.2L-18,489.2 M-108.3,439.9h33.9
	v-22.6h-33.9V439.9L-108.3,439.9 M-108.3,473.8h33.9v-22.6h-33.9V473.8L-108.3,473.8 M-63.1,473.8h22.6v-22.6h-22.6V473.8
	L-63.1,473.8 M-63.1,473.8L-63.1,473.8z"/>
</svg>
