<?xml version="1.0" encoding="utf-8"?>
<svg version="1.1" id="图层_1" xmlns="http://www.w3.org/2000/svg" xmlns:xlink="http://www.w3.org/1999/xlink" x="0px" y="0px"
	 viewBox="0 0 595.3 841.9" style="enable-background:new 0 0 595.3 841.9;" xml:space="preserve">
<defs>
    <style>
      .st0 {
        fill: gray;
        fill-rule: evenodd;
      }
    </style>
  </defs>
<g>
	<path class="st0" d="M321.8,476.8l-14.3,91l89.6-31.7L321.8,476.8z M321.8,476.8"/>
	<path class="st0" d="M63.8,421.5c-9,0-16.3,7.3-16.3,16.3V454c0,9,7.3,16.3,16.3,16.3h212.3l-1-16.3l26.8-32.5H63.8L63.8,421.5z
		 M63.8,421.5"/>
	<path class="st0" d="M567.6,584H242.6c-17.9,0-32.5,14.6-32.5,32.5v130c0,17.9,14.6,32.5,32.5,32.5h325.1c18,0,32.5-14.6,32.5-32.5
		v-130C600.1,598.6,585.6,584,567.6,584z M567.6,746.6"/>
	<path class="st0" d="M395.9,307.7H242.6v0.4H62.9c-9,0-16.3,7.3-16.3,16.3v16.3c0,9,7.3,16.3,16.3,16.3h212.3l0-0.4h80.4
		L395.9,307.7L395.9,307.7z M395.9,307.7"/>
	<path class="st0" d="M-1.2,665.3V145.2c0-18,14.6-32.5,32.5-32.5h422.6c18,0,32.5,14.6,32.5,32.5v53l48.2-58.4
		c-2.8-42.3-37.7-75.9-80.7-75.9H31.3c-44.9,0-81.3,36.4-81.3,81.3v520.1c0,44.9,36.4,81.3,81.3,81.3h162.5v-48.8H31.3
		C13.3,697.8-1.2,683.2-1.2,665.3L-1.2,665.3z M-1.2,665.3"/>
	<path class="st0" d="M437.6,226.4v-16.3c0-9-7.3-16.3-16.3-16.3h-120l0.1-0.2H63.4c-9,0-16.3,7.3-16.3,16.3v16.3
		c0,9,7.3,16.3,16.3,16.3h179.2v0.1h178.8C430.3,242.7,437.6,235.4,437.6,226.4L437.6,226.4z M437.6,226.4"/>
	<path class="st0" d="M330.5,466.6l75.3,59.2l199-235.2l-75.3-59.2L330.5,466.6z M330.5,466.6"/>
	<path class="st0" d="M280.2,535.3H63.8c-9,0-16.2,7.3-16.2,16.3v16.3c0,9,7.3,16.3,16.2,16.3h130v-16.3h88.4L280.2,535.3
		L280.2,535.3z M280.2,535.3"/>
	<path class="st0" d="M486.4,497.3v70.4h48.8V443.1L486.4,497.3z M486.4,497.3"/>
	<path class="st0" d="M635.1,212.4L602.9,187c-11.9-9.3-29.3-7.8-38.8,3.5L546.7,211l75.3,59.2l17.3-20.4
		C648.9,238.5,647,221.7,635.1,212.4L635.1,212.4z M635.1,212.4"/>
	<path class="st0" d="M437.6,649h97.5v32.5h-97.5V649L437.6,649z M437.6,649"/>
</g>
</svg>
