<svg xmlns="http://www.w3.org/2000/svg" xmlns:xlink="http://www.w3.org/1999/xlink" preserveAspectRatio="xMidYMid" width="193" height="193" viewBox="0 0 193 193">
  <defs>
    <style>
      .cls-1 {
        fill: #fff;
        fill-rule: evenodd;
      }
    </style>
  </defs>
  <path d="M97.000,8.001 C48.954,8.001 8.001,48.964 8.001,97.022 C8.001,145.080 48.954,185.999 97.000,185.999 C145.046,185.999 185.999,145.080 185.999,97.022 C185.999,48.964 145.046,8.001 97.000,8.001 L97.000,8.001 L97.000,8.001 ZM97.000,174.519 C54.225,174.519 19.522,139.851 19.522,97.022 C19.522,54.203 54.225,19.536 97.000,19.536 C139.808,19.536 174.478,54.248 174.478,97.022 C174.478,139.851 139.808,174.519 97.000,174.519 L97.000,174.519 L97.000,174.519 ZM68.918,134.655 L83.118,134.655 L83.118,158.130 L68.918,158.130 L68.918,134.655 L68.918,134.655 ZM92.410,134.655 L106.565,134.655 L106.565,158.130 L92.410,158.130 L92.410,134.655 L92.410,134.655 ZM115.517,134.655 L129.673,134.655 L129.673,158.130 L115.517,158.130 L115.517,134.655 L115.517,134.655 ZM109.014,105.007 C109.014,110.534 104.533,115.008 99.042,115.008 C93.806,115.008 89.445,110.880 89.144,105.655 L71.000,79.000 L99.102,95.113 C104.533,95.113 109.014,99.526 109.014,105.007 L109.014,105.007 L109.014,105.007 ZM57.090,109.691 L65.029,117.675 L50.126,132.750 L42.132,124.723 L57.090,109.691 L57.090,109.691 ZM56.126,94.724 L35.011,94.724 L35.011,83.425 L56.126,83.425 L56.126,94.724 L56.126,94.724 ZM57.695,48.056 L72.653,63.074 L64.658,71.114 L49.700,56.082 L57.695,48.056 L57.695,48.056 ZM103.030,56.244 L91.720,56.244 L91.720,35.003 L103.030,35.003 L103.030,56.244 L103.030,56.244 ZM130.839,71.366 L122.844,63.396 L137.858,48.377 L145.797,56.347 L130.839,71.366 L130.839,71.366 ZM155.998,83.425 L155.998,94.724 L134.827,94.724 L134.827,83.425 L155.998,83.425 L155.998,83.425 ZM138.710,109.928 L153.669,124.961 L145.716,132.987 L130.758,117.969 L138.710,109.928 L138.710,109.928 Z" class="cls-1"/>
</svg>
