<?xml version="1.0" encoding="utf-8"?>
<!-- Generator: Adobe Illustrator 19.0.0, SVG Export Plug-In . SVG Version: 6.00 Build 0)  -->
<svg version="1.1" id="图层_1" xmlns="http://www.w3.org/2000/svg" xmlns:xlink="http://www.w3.org/1999/xlink" x="0px" y="0px"
	 viewBox="-197 320.9 200 200" style="enable-background:new -197 320.9 200 200;" xml:space="preserve">
<style type="text/css">
	.st0{fill:#FFFFFF;}
</style>
<path class="st0" d="M-132.2,475.9v-79.3c0-3.2-2.4-5.6-5.4-5.6h-16.1c-2.9,0-5.4,2.7-5.4,5.6v79.3H-132.2L-132.2,475.9z
	 M-98.1,475.9V362.5c0-3.2-2.4-5.8-5.4-5.8h-16.1c-2.9,0-5.4,2.7-5.4,5.8v113.4H-98.1L-98.1,475.9z M-64.1,475.9v-50.1
	c0-3.2-2.4-5.8-5.4-5.8h-16.1c-2.9,0-5.4,2.7-5.4,5.8l0,50.1H-64.1L-64.1,475.9z M-30,475.9v-79.3c0-3.2-2.4-5.6-5.4-5.6h-16.1
	c-2.9,0-5.4,2.7-5.4,5.6v79.3H-30L-30,475.9z"/>
</svg>
