<svg xmlns="http://www.w3.org/2000/svg" xmlns:xlink="http://www.w3.org/1999/xlink" preserveAspectRatio="xMidYMid" width="48" height="48" viewBox="0 0 48 48">
  <defs>
    <style>
      .cls-1 {
        fill: #ff0000;
        stroke: #989898;
        stroke-width: 2px;
        fill-rule: evenodd;
      }
    </style>
  </defs>
  <path d="M47.000,29.000 L47.000,20.000 L41.987,20.000 C41.582,18.314 40.946,16.721 40.106,15.259 L43.592,11.772 L37.228,5.408 L33.815,8.822 C32.335,7.924 30.719,7.236 29.000,6.793 L29.000,2.000 L20.000,2.000 L20.000,6.793 C18.281,7.236 16.665,7.924 15.185,8.822 L11.772,5.408 L5.408,11.772 L8.894,15.259 C8.054,16.721 7.418,18.314 7.013,20.000 L2.000,20.000 L2.000,29.000 L7.166,29.000 C7.611,30.608 8.272,32.123 9.119,33.517 L5.408,37.228 L11.772,43.591 L15.554,39.809 C16.933,40.600 18.425,41.208 20.000,41.612 L20.000,47.000 L29.000,47.000 L29.000,41.612 C30.575,41.208 32.067,40.600 33.446,39.809 L37.228,43.591 L43.592,37.228 L39.881,33.517 C40.728,32.123 41.389,30.608 41.834,29.000 L47.000,29.000 ZM24.500,34.283 C19.106,34.283 14.719,29.893 14.719,24.500 C14.719,19.106 19.106,14.716 24.500,14.716 C29.894,14.716 34.281,19.106 34.281,24.500 C34.281,29.893 29.894,34.283 24.500,34.283 Z" class="cls-1"/>
</svg>
