<?xml version="1.0" standalone="no"?><!DOCTYPE svg PUBLIC "-//W3C//DTD SVG 1.1//EN" "http://www.w3.org/Graphics/SVG/1.1/DTD/svg11.dtd"><svg width="221.484375" height="200" viewBox="0 0 221.484375 200" version="1.1" xmlns="http://www.w3.org/2000/svg" xmlns:xlink="http://www.w3.org/1999/xlink"><g class="transform-group"><g transform="scale(0.1953125, 0.1953125)">
  <defs>
    <style>
      .cls-a {

      fill: #aaaaaa;
      stroke: #989898;
      fill-rule: evenodd;
      }
    </style>
  </defs>

  <path d="M921.58993 909.103353 797.429049 784.942472c21.24732-25.17455 38.567411-53.269348 51.45678-83.680205 17.118694-40.379978 25.778739-83.37811 25.778739-127.685318 0-44.307208-8.760743-87.30534-25.778739-127.685318-16.514505-39.070902-40.178582-74.214574-70.388042-104.323336-30.108762-30.108762-65.252434-53.772839-104.323336-70.388042-40.379978-17.118694-83.37811-25.778739-127.685318-25.778739-44.307208 0-87.30534 8.760743-127.685318 25.778739-39.070902 16.514505-74.214574 40.178582-104.323336 70.388042-30.108762 30.108762-53.772839 65.252434-70.388042 104.323336-17.118694 40.379978-25.778739 83.37811-25.778739 127.685318 0 44.307208 8.760743 87.30534 25.778739 127.685318 16.514505 39.070902 40.178582 74.214574 70.388042 104.323336 30.108762 30.108762 65.252434 53.772839 104.323336 70.388042 40.379978 17.118694 83.478808 25.778739 127.685318 25.778739 44.307208 0 87.30534-8.760743 127.685318-25.778739 30.813649-13.090766 59.109844-30.511555 84.586488-52.161668l124.160881 124.160881c5.337005 5.337005 12.28518 8.055856 19.334054 8.055856 7.048874 0 13.99705-2.618153 19.334054-8.055856C932.263939 937.097453 932.263939 919.777363 921.58993 909.103353L921.58993 909.103353zM546.589832 846.972564c-150.745206 0-273.395614-122.650408-273.395614-273.395614 0-150.745206 122.650408-273.395614 273.395614-273.395614 150.745206 0 273.496312 122.650408 273.496312 273.395614C820.086144 724.322156 697.335038 846.972564 546.589832 846.972564L546.589832 846.972564zM546.589832 846.972564M820.186842 280.243092c0 0 12.184482 27.389911 27.389911 27.389911 15.10473 0 27.389911-12.184482 27.389911-27.389911l0-79.249484c0-65.957321-53.672141-119.629462-119.629462-119.629462L174.00649 81.364146C108.049169 81.364146 54.377028 135.036287 54.377028 200.993608l0 635.909136c0 65.957321 53.672141 119.629462 119.629462 119.629462l152.960566 0c15.10473 0 27.389911-12.184482 27.389911-27.389911 3.92723-28.296194-58.404956-55.786803-58.404956-55.786803C-29.001082 572.267873 283.264038-3.121644 820.186842 280.243092zM451.127938 378.82663c-46.723965 22.455699-83.780903 61.023109-104.424034 108.955453-5.941194 13.795653 0.402793 29.907366 14.097748 35.949258 3.524437 1.510473 7.149572 2.21536 10.774707 2.21536 10.472613 0 20.542433-6.14259 24.872456-16.413807 15.306126-35.747861 42.998132-64.547546 77.940407-81.364146 13.594257-6.444685 19.233356-22.757793 12.788671-36.35205C480.833907 378.222441 464.722195 372.381945 451.127938 378.82663L451.127938 378.82663zM451.127938 378.82663M729.357066 545.784246c-15.004032 0-27.087816 12.184482-27.087816 27.289212 0 88.41302-71.495722 160.412233-159.405251 160.412233-15.004032 0-27.087816 12.184482-27.087816 27.289212 0 15.10473 12.083784 27.289212 27.087816 27.289212 56.995181 0 110.667322-22.355 150.946602-62.936375 40.379978-40.581375 62.533582-94.55561 62.533582-151.953584C756.444882 557.968728 744.361097 545.784246 729.357066 545.784246L729.357066 545.784246zM729.357066 545.784246"  class="cls-a"></path></g></g></svg>
