<?xml version="1.0" encoding="utf-8"?>
<!-- Generator: Adobe Illustrator 19.0.0, SVG Export Plug-In . SVG Version: 6.00 Build 0)  -->
<svg version="1.1" id="图层_1" xmlns="http://www.w3.org/2000/svg" xmlns:xlink="http://www.w3.org/1999/xlink" x="0px" y="0px"
	 viewBox="-180 320.9 233.4 200" style="enable-background:new -180 320.9 233.4 200;" xml:space="preserve">
<style type="text/css">
	.st0{fill:#FFFFFF;}
</style>
<path class="st0" d="M-146.7,457.1h7.9c3.6,0,6.5-2.9,6.5-6.5s-2.9-6.5-6.5-6.5h-7.9c-11.2,0-20.3-9.2-20.3-20.4V416
	c0-11.3,9.1-20.4,20.3-20.4h7.9c3.6,0,6.5-2.9,6.5-6.5c0-3.6-2.9-6.5-6.5-6.5h-7.9c-11.2,0-20.3-9.2-20.3-20.4v-7.7
	c0-11.3,9.1-20.4,20.3-20.4H14.4c-4.5,5.8-6.9,12.9-6.9,20.4v7.7c0,7.5,2.5,14.6,6.9,20.4h-83.8c-3.6,0-6.5,2.9-6.5,6.5
	c0,3.6,2.9,6.5,6.5,6.5h83.8c-4.5,5.8-6.9,12.9-6.9,20.4v7.7c0,7.5,2.5,14.6,6.9,20.4h-84.5c-3.6,0-6.5,2.9-6.5,6.5s2.9,6.5,6.5,6.5
	h84.5c-4.5,5.8-6.9,12.9-6.9,20.4v7.7c0,7.5,2.5,14.6,6.9,20.4h-161.1c-11.2,0-20.3-9.2-20.3-20.4v-7.7
	C-167,466.3-157.9,457.1-146.7,457.1 M40.7,457.1h1.3c3.6,0,6.5-2.9,6.5-6.5s-2.9-6.5-6.5-6.5h-1.3c-11.2,0-20.3-9.2-20.3-20.4V416
	c0-11.3,9.1-20.4,20.3-20.4c3.6,0,6.5-2.9,6.5-6.5c0-3.6-2.9-6.5-6.5-6.5c-11.2,0-20.3-9.2-20.3-20.4v-7.7
	c0-11.3,9.1-20.4,20.3-20.4c3.6,0,6.5-2.9,6.5-6.5c0-3.6-2.9-6.5-6.5-6.5c-0.4,0-0.8,0-1.2,0.1l-186.2-0.1
	c-18.3,0-33.3,15-33.3,33.5v7.7c0,10.8,5.1,20.7,13.6,26.9c-8.5,6.2-13.6,16.2-13.6,26.9v7.7c0,10.8,5.1,20.7,13.6,26.9
	c-8.5,6.3-13.6,16.2-13.6,26.9v7.7c0,18.5,14.9,33.5,33.3,33.5H38.8c0.2,0,0.5,0,0.6-0.1l0,0c0.4,0,0.8,0.1,1.2,0.1
	c3.6,0,6.5-2.9,6.5-6.5c0-3.6-2.9-6.5-6.5-6.5c-11.2,0-20.3-9.2-20.3-20.4v-7.7C20.4,466.3,29.5,457.1,40.7,457.1 M-117,463.9v-96.6
	h23.4v96.6l-7.1-7.2c-2.4-2.5-6.7-2.5-9.2,0L-117,463.9z M-126,485.6c1.6,0.7,3.4,0.7,5,0c0.8-0.3,1.5-0.8,2.1-1.4l13.6-13.7
	l13.6,13.7c0.6,0.6,1.3,1.1,2.1,1.4c0.8,0.3,1.6,0.5,2.5,0.5c0.9,0,1.7-0.2,2.5-0.5c1.6-0.7,2.8-1.9,3.5-3.5
	c0.3-0.8,0.5-1.6,0.5-2.5V360.7c0-3.6-2.9-6.5-6.5-6.5h-36.3c-3.6,0-6.5,2.9-6.5,6.5v118.9c0,0.9,0.2,1.7,0.5,2.5
	C-128.9,483.7-127.6,485-126,485.6L-126,485.6z"/>
</svg>
