<?xml version="1.0" encoding="utf-8"?>
<!-- Generator: Adobe Illustrator 19.0.0, SVG Export Plug-In . SVG Version: 6.00 Build 0)  -->
<svg version="1.1" id="图层_1" xmlns="http://www.w3.org/2000/svg" xmlns:xlink="http://www.w3.org/1999/xlink" x="0px" y="0px"
	 viewBox="-197 320.9 200 200" style="enable-background:new -197 320.9 200 200;" xml:space="preserve">
<style type="text/css">
	.st0{fill:#FFFFFF;}
</style>
<path class="st0" d="M-11.9,346.2h-42.6v-7.1c0-3.9-3.2-7.1-7.1-7.1s-7.1,3.2-7.1,7.1v7.1h-56.7v-7.1c0-3.9-3.2-7.1-7.1-7.1
	c-3.9,0-7.1,3.2-7.1,7.1v7.1H-182c-7.8,0-14.2,6.4-14.2,14.2v134.7c0,7.8,6.3,14.2,14.2,14.2h170.2c7.8,0,14.2-6.4,14.2-14.2
	l0-134.7C2.3,352.6-4.1,346.2-11.9,346.2 M-11.9,495.1H-182V360.4h42.5v7.1c0,3.9,3.2,7.1,7.1,7.1s7.1-3.2,7.1-7.1v-7.1h56.7v7.1
	c0,3.9,3.2,7.1,7.1,7.1s7.1-3.2,7.1-7.1v-7.1h42.6L-11.9,495.1L-11.9,495.1z M-182,389.4h170.2v7.1H-182V389.4z M-160.8,453.3h21.3
	v21.3h-21.3V453.3z M-125.3,453.3h21.3v21.3h-21.3V453.3z M-89.9,453.3h21.3v21.3h-21.3V453.3z M-89.9,417.8h21.3v21.3h-21.3V417.8z
	 M-125.3,417.8h21.3v21.3h-21.3V417.8z M-54.4,417.8h21.3v21.3h-21.3V417.8z"/>
</svg>
