<?xml version="1.0" encoding="utf-8"?>
<!-- Generator: Adobe Illustrator 19.0.0, SVG Export Plug-In . SVG Version: 6.00 Build 0)  -->
<svg version="1.1" id="图层_1" xmlns="http://www.w3.org/2000/svg" xmlns:xlink="http://www.w3.org/1999/xlink" x="0px" y="0px"
	 viewBox="-197 320.9 200 200" style="enable-background:new -197 320.9 200 200;" xml:space="preserve">
<style type="text/css">
	.st0{fill:#FFFFFF;}
</style>
<path class="st0" d="M-99.1,325.1c-51.8,0-93.8,42-93.8,93.8s42,93.7,93.8,93.7s93.8-42,93.8-93.7S-47.3,325.1-99.1,325.1z
	 M-99.1,500.1c-44.9,0-81.3-36.4-81.3-81.3s36.4-81.3,81.3-81.3s81.3,36.4,81.3,81.3S-54.2,500.1-99.1,500.1z M-154.7,412.6
	c3.2-28.1,26.7-50,55.6-50s52.5,21.9,55.6,50h12.8c-3.2-35-32.6-62.5-68.4-62.5s-65.3,27.5-68.4,62.5
	C-167.5,412.6-154.7,412.6-154.7,412.6z M-92.8,445v-57.4h-12.5V445c-7.3,2.6-12.5,9.4-12.5,17.6c0,10.4,8.4,18.8,18.8,18.8
	s18.8-8.4,18.8-18.8C-80.3,454.4-85.6,447.5-92.8,445z M-99.1,468.8c-3.4,0-6.3-2.8-6.3-6.3c0-3.5,2.8-6.3,6.3-6.3s6.3,2.8,6.3,6.3
	C-92.8,466-95.6,468.8-99.1,468.8z"/>
</svg>
