<?xml version="1.0" encoding="utf-8"?>
<!-- Generator: Adobe Illustrator 19.0.0, SVG Export Plug-In . SVG Version: 6.00 Build 0)  -->
<svg version="1.1" id="图层_1" xmlns="http://www.w3.org/2000/svg" xmlns:xlink="http://www.w3.org/1999/xlink" x="0px" y="0px"
	 viewBox="-197 320.9 200 200" style="enable-background:new -197 320.9 200 200;" xml:space="preserve">
<style type="text/css">
	.st0{fill:#FFFFFF;}
</style>
<path class="st0" d="M-92.4,330.6c-0.5,0-1.1,0-1.6,0v94.9l-93.4,0c0,52.4,42.5,95,95,95c52.4,0,95-42.5,95-95
	S-39.9,330.6-92.4,330.6z M-92.9,511.9c-48,0-83.5-39.2-86.9-80h92.3l0-93.7c0.5,0,1-0.1,1.5,0C-45.6,341.2-6,377-6,425
	S-44.9,511.9-92.9,511.9z M-99.3,320.9c-52.9,3.5-95.1,46.1-97.7,99.2h97.7V320.9z"/>
</svg>
