<?xml version="1.0" encoding="utf-8"?>
<!-- Generator: Adobe Illustrator 19.0.0, SVG Export Plug-In . SVG Version: 6.00 Build 0)  -->
<svg version="1.1" id="图层_1" xmlns="http://www.w3.org/2000/svg" xmlns:xlink="http://www.w3.org/1999/xlink" x="0px" y="0px"
	 viewBox="-197 320.9 201 200" style="enable-background:new -197 320.9 201 200;" xml:space="preserve">
<style type="text/css">
	.st0{fill:#FFFFFF;}
</style>
<path class="st0" d="M-153.4,377.8h97.7v15.6h-97.7V377.8z"/>
<path class="st0" d="M-153.4,411.5h64.8v15.6h-64.8V411.5z"/>
<path class="st0" d="M-153.4,443.5h89.5v15.6h-89.5V443.5z"/>
<path class="st0" d="M-165.7,474.7V360.6c0-3.3,2.5-6.6,6.6-6.6h118.2c3.3,0,6.6,2.5,6.6,6.6v45.1H-22V354c0-7.4-5.7-12.3-12.3-12.3
	h-131.3c-6.6,0-12.3,5.7-12.3,12.3v126.4c0,7.4,5.7,12.3,12.3,12.3h105.1v-12.3h-98.5C-162.4,480.4-165.7,477.9-165.7,474.7
	L-165.7,474.7z"/>
<path class="st0" d="M-46,480.9h12.4v11.8H-46V480.9z"/>
<path class="st0" d="M-35.3,415.6c-15.7-0.8-25.6,6.8-28.1,22.1l10.7,2.5c2.5-10.2,7.5-15.3,15.7-15.3c7.5,0.8,11.6,4.2,12.4,11
	c0.8,5.1-2.5,9.4-9.9,14.4c-6.6,5.1-9.9,10.2-9.1,17.7v4.2h9.1v-3.4c0-5.1,2.5-9.4,8.3-13.5c9.1-5.9,13.2-12.7,13.2-20.4
	C-15.6,422.3-22.1,415.6-35.3,415.6L-35.3,415.6z"/>
</svg>
