<?xml version="1.0" standalone="no"?><!DOCTYPE svg PUBLIC "-//W3C//DTD SVG 1.1//EN" "http://www.w3.org/Graphics/SVG/1.1/DTD/svg11.dtd"><svg width="200" height="200" viewBox="0 0 200 200" version="1.1" xmlns="http://www.w3.org/2000/svg" xmlns:xlink="http://www.w3.org/1999/xlink"><g class="transform-group"><g transform="scale(0.1953125, 0.1953125)">
  <defs>
    <style>
      .cls-a {

      fill: #aaaaaa;
      stroke: #989898;
      fill-rule: evenodd;
      }
    </style>
  </defs>
  <path d="M921.225041 787.045741l-9.229997 0L911.995044 386.256275c0-18.70869-15.30647-34.01516-34.01516-34.01516L717.442183 352.241114c-18.70869 0-34.01516 15.30647-34.01516 34.01516L683.427023 787.047755 626.285018 787.047755 626.285018 50.460402c0-18.70869-15.30647-34.01516-34.01516-34.01516L431.731149 16.445242c-18.70869 0-34.01516 15.30647-34.01516 34.01516l0 736.587353-57.146033 0L340.569956 203.802995c0-18.70869-15.30647-34.01516-34.01516-34.01516L146.017095 169.787835c-18.70869 0-34.01516 15.30647-34.01516 34.01516L112.001935 787.047755l-9.225969 0c-8.393286 0-15.259147 6.866868-15.259147 15.25814l0 47.847569c0 8.393286 6.866868 15.25814 15.259147 15.25814l818.448068 0c8.393286 0 15.259147-6.865861 15.259147-15.25814l0-47.847569C936.484187 793.913615 929.616313 787.045741 921.225041 787.045741z"  class="cls-a"></path></g></g></svg>
