<!-- Generated by IcoMoon.io -->
<svg version="1.1" xmlns="http://www.w3.org/2000/svg" width="1024" height="1024" viewBox="0 0 1024 1024">
<title></title>

<path fill="#000" d="M405.333 315.964h355.553v35.554h-355.553v-35.554zM405.333 493.744h355.553v35.554h-355.553v-35.554zM405.333 671.517h355.553v35.554h-355.553v-35.554zM263.114 333.745c0-19.627 15.787-35.554 35.554-35.554 19.627 0 35.554 15.787 35.554 35.554 0 19.627-15.787 35.554-35.554 35.554-19.627 0-35.554-15.787-35.554-35.554zM263.114 511.517c0-19.627 15.787-35.554 35.554-35.554 19.627 0 35.554 15.787 35.554 35.554 0 19.627-15.787 35.554-35.554 35.554-19.627 0-35.554-15.787-35.554-35.554zM263.114 689.298c0-19.627 15.787-35.554 35.554-35.554 19.627 0 35.554 15.787 35.554 35.554 0 19.627-15.787 35.554-35.554 35.554-19.627 0-35.554-15.787-35.554-35.554z"></path>
</svg>
