<!-- Generated by IcoMoon.io -->
<svg version="1.1" xmlns="http://www.w3.org/2000/svg" width="1024" height="1024" viewBox="0 0 1024 1024">
<title></title>

<path fill="#ffffff" d="M502.4 264.517c0.054 0 0.119 0 0.184 0 63.097 0 114.248 51.151 114.248 114.248 0 18.493-4.395 35.961-12.195 51.414l-0.997 2.114-1.599 2.504c-3.593 6.44-7.222 11.93-11.211 17.131l-88.037 136.181-100.167-153.912-3.016-6.168-3.344-5.168c-5.262-12.731-8.32-27.514-8.32-43.011 0-63.389 51.137-114.834 114.409-115.332h0.045zM502.4 230.060c-82.266 0.578-148.732 67.401-148.732 149.747 0 23.479 5.403 45.696 15.035 65.476-0.335-0.855-0.294-0.801-0.279-0.738l134.44 206.602 116.936-180.8c4.183-5.482 8.222-11.67 11.804-18.147l4.86-7.653h-0.711c9.682-19.195 15.352-41.834 15.352-65.8 0-82.118-66.57-148.688-148.688-148.688-0.006 0-0.011 0-0.017 0h0.001zM505.744 462.782c-0.119 0.001-0.265 0.001-0.408 0.001-42.225 0-76.456-34.231-76.456-76.456s34.231-76.456 76.456-76.456c42.225 0 76.455 34.23 76.456 76.455 0 0.043 0 0.094 0 0.145 0 42.053-34.016 76.161-76.034 76.312h-0.014zM505.744 344.326c-0.067 0-0.145-0.001-0.224-0.001-23.196 0-42 18.804-42 42s18.804 42 42 42c23.196 0 42-18.804 42-41.999 0-0.024 0-0.052 0-0.080 0-23.101-18.686-41.839-41.768-41.92h-0.008zM596.248 822.060c-1.657-0.001-3.257-0.246-4.765-0.702l-173.883-81.482-180.896 70.784c-1.061 0.233-2.279 0.366-3.528 0.366-9.486 0-17.176-7.69-17.176-17.176 0-0.013 0-0.029 0-0.040v-318.326c0-0.012 0-0.025 0-0.039 0-5.974 3.042-11.236 7.665-14.322l70.736-30.847c2.656-1.761 5.918-2.81 9.424-2.81 9.505 0 17.21 7.704 17.21 17.21 0 5.998-3.069 11.28-7.722 14.36l-63.064 25.744v287.768l164.328-67.2c1.070-0.259 2.298-0.408 3.56-0.408 1.662 0 3.263 0.257 4.767 0.734l173.304 81.257 177.52-51.488v-294.984l-69.728 28.6c-1.916 0.798-4.137 1.261-6.468 1.261-9.509 0-17.217-7.708-17.217-17.217 0-7.177 4.392-13.328 10.635-15.914l93.45-38.33c1.911-0.808 4.136-1.277 6.467-1.277 3.559 0 6.862 1.094 9.591 2.963 4.539 3.119 7.519 8.338 7.542 14.253v333.603c0 0.004 0 0.008 0 0.012 0 7.788-5.164 14.369-12.254 16.508l-194.746 56.456c-1.426 0.426-3.064 0.672-4.76 0.672v0z"></path>
</svg>
