<svg xmlns="http://www.w3.org/2000/svg" xmlns:xlink="http://www.w3.org/1999/xlink" preserveAspectRatio="xMidYMid" width="42" height="42" viewBox="0 0 42 42">
  <defs>
    <style>

      .cls-1, .cls-2 {
        fill-rule: evenodd;
      }

      .cls-2 {
        fill: #989898;
      }
    </style>
  </defs>
  <path d="M20.512,1.976 C31.288,1.976 40.024,10.712 40.024,21.488 C40.024,32.264 31.288,41.000 20.512,41.000 C9.736,41.000 1.000,32.264 1.000,21.488 C1.000,10.712 9.736,1.976 20.512,1.976 Z" class="cls-1"/>
  <path d="M21.000,1.000 C9.953,1.000 1.000,9.953 1.000,21.000 C1.000,32.046 9.953,41.000 21.000,41.000 C32.047,41.000 41.000,32.046 41.000,21.000 C41.000,9.953 32.047,1.000 21.000,1.000 ZM21.000,2.667 C31.109,2.667 39.333,10.891 39.333,21.000 C39.333,25.448 37.738,29.530 35.092,32.710 C33.280,31.950 28.965,30.451 26.282,29.657 C26.054,29.585 26.018,29.576 26.018,28.627 C26.018,27.844 26.340,27.056 26.654,26.389 C26.994,25.663 27.398,24.444 27.543,23.350 C27.948,22.880 28.502,21.952 28.855,20.184 C29.166,18.625 29.021,18.059 28.814,17.525 C28.793,17.469 28.770,17.414 28.755,17.359 C28.677,16.994 28.783,15.095 29.050,13.622 C29.234,12.611 29.003,10.461 27.613,8.684 C26.734,7.561 25.051,6.181 21.980,5.988 L20.295,5.990 C17.276,6.181 15.595,7.561 14.716,8.684 C13.323,10.461 13.091,12.611 13.277,13.622 C13.544,15.095 13.651,16.994 13.573,17.352 C13.557,17.414 13.534,17.469 13.511,17.525 C13.306,18.059 13.160,18.625 13.472,20.184 C13.827,21.952 14.377,22.880 14.784,23.350 C14.927,24.444 15.331,25.663 15.673,26.389 C15.923,26.919 16.039,27.640 16.039,28.661 C16.039,29.608 16.005,29.621 15.790,29.688 C13.026,30.503 8.635,32.092 6.998,32.808 C4.301,29.615 2.667,25.497 2.667,21.000 C2.667,10.891 10.891,2.667 21.000,2.667 ZM8.207,34.107 C10.084,33.342 13.819,32.009 16.277,31.281 C17.706,30.832 17.706,29.628 17.706,28.661 C17.706,27.860 17.652,26.679 17.182,25.679 C16.859,24.994 16.491,23.820 16.412,22.903 C16.392,22.688 16.291,22.489 16.129,22.346 C15.894,22.141 15.412,21.382 15.106,19.855 C14.865,18.648 14.966,18.384 15.067,18.127 C15.110,18.020 15.149,17.912 15.181,17.790 C15.383,17.059 15.158,14.655 14.916,13.322 C14.810,12.743 14.944,11.096 16.028,9.709 C17.001,8.467 18.472,7.776 20.347,7.655 L21.928,7.653 C23.856,7.776 25.328,8.467 26.299,9.709 C27.383,11.096 27.515,12.743 27.411,13.322 C27.169,14.655 26.945,17.059 27.144,17.789 C27.178,17.912 27.219,18.020 27.261,18.127 C27.359,18.384 27.463,18.648 27.221,19.855 C26.915,21.382 26.435,22.141 26.197,22.346 C26.036,22.489 25.935,22.688 25.917,22.903 C25.836,23.820 25.468,24.994 25.145,25.679 C24.776,26.464 24.351,27.509 24.351,28.627 C24.351,29.594 24.351,30.796 25.797,31.252 C28.148,31.947 31.905,33.238 33.891,34.019 C30.575,37.300 26.021,39.333 21.000,39.333 C16.026,39.333 11.514,37.334 8.207,34.107 Z" class="cls-2"/>
</svg>
