<?xml version="1.0" standalone="no"?><!DOCTYPE svg PUBLIC "-//W3C//DTD SVG 1.1//EN" "http://www.w3.org/Graphics/SVG/1.1/DTD/svg11.dtd"><svg width="200" height="200" viewBox="0 0 200 200" version="1.1" xmlns="http://www.w3.org/2000/svg" xmlns:xlink="http://www.w3.org/1999/xlink"><g class="transform-group"><g transform="scale(0.1953125, 0.1953125)"><path d="M413.744 217.344l205.504 0c0 0 62-3.008 67.008-72.992L686.256 94.352c0 0-6-65.504-82.496-65.504s-187.504 0-187.504 0-69.504-4.496-78.496 70.496l0 48.496C337.744 147.856 341.744 217.344 413.744 217.344zM816 92l-70 0L745.28 92l0 98.8c0 44.192-35.808 80-80 80L357.28 270.8c-44.192 0-80-35.808-80-80L277.28 92 208 92c-44.192 0-80 35.92-80 80.272l0 742.672c0 44.32 35.808 80.256 80 80.256l608 0c44.192 0 80-35.936 80-80.256L896 172.272C896 127.936 860.192 92 816 92zM736.272 793.92 287.728 793.92c-17.664 0-32-14.32-32-32 0-17.664 14.336-32 32-32l448.528 0c17.664 0 32 14.336 32 32C768.272 779.616 753.936 793.92 736.272 793.92zM736.272 597.792 287.728 597.792c-17.664 0-32-14.32-32-32 0-17.664 14.336-32 32-32l448.528 0c17.664 0 32 14.336 32 32C768.272 583.488 753.936 597.792 736.272 597.792zM736.272 401.68 287.728 401.68c-17.664 0-32-14.336-32-32s14.336-32 32-32l448.528 0c17.664 0 32 14.336 32 32S753.936 401.68 736.272 401.68z" fill="#808080"></path></g></g></svg>