<?xml version="1.0" standalone="no"?><!DOCTYPE svg PUBLIC "-//W3C//DTD SVG 1.1//EN" "http://www.w3.org/Graphics/SVG/1.1/DTD/svg11.dtd"><svg width="200" height="200" viewBox="0 0 200 200" version="1.1" xmlns="http://www.w3.org/2000/svg" xmlns:xlink="http://www.w3.org/1999/xlink"><g class="transform-group"><g transform="scale(0.1953125, 0.1953125)"><path d="M879.503 923.159h-747.201c-51.568 0-93.367-54.306-93.367-121.248v-557.506h57.619c-0.353 210.593-1.59 484.863-1.59 484.863 0 66.812 16.305 121.027 67.916 121.027h686.179c51.611 0 67.916-54.261 67.916-121.027 0 0-1.194-280.454-1.59-484.863h57.619v557.506c-0.044 66.942-41.845 121.248-93.499 121.248v0zM38.891 115.82c0-41.359 41.801-74.853 93.367-74.853h747.245c51.654 0 93.411 33.494 93.411 74.853v164.729h-934.022v-164.729zM256.069 441.566c0 17.807-14.404 32.211-32.211 32.211s-32.211-14.404-32.211-32.211 14.404-32.211 32.211-32.211 32.211 14.404 32.211 32.211zM824.048 466.445h-477.749v-47.854h477.749v47.854zM256.069 563.081c0 17.764-14.404 32.211-32.211 32.211s-32.211-14.404-32.211-32.211c0-17.807 14.404-32.211 32.211-32.211s32.211 14.404 32.211 32.211zM824.048 587.957h-477.749v-47.9h477.749v47.9zM256.069 676.332c0 17.764-14.404 32.211-32.211 32.211s-32.211-14.45-32.211-32.211c0-17.807 14.404-32.211 32.211-32.211s32.211 14.361 32.211 32.211zM824.048 701.165h-477.749v-47.9h477.749v47.9z" fill="#808080"></path></g></g></svg>