<svg xmlns="http://www.w3.org/2000/svg" xmlns:xlink="http://www.w3.org/1999/xlink" preserveAspectRatio="xMidYMid" width="32" height="37" viewBox="0 0 32 37">
  <defs>
    <style>
      .cls-1 {
        fill: gray;
        fill-rule: evenodd;
      }
    </style>
  </defs>
  <path d="M22.021,24.242 C23.037,22.304 32.523,29.919 32.015,33.935 C31.168,38.227 0.000,37.396 0.000,35.181 C0.000,29.642 3.388,25.904 10.333,23.965 C10.333,23.965 11.688,27.011 12.874,29.088 C14.060,31.165 14.060,30.473 14.060,30.473 C14.060,30.473 15.076,27.704 15.076,27.150 C15.076,26.596 13.721,26.042 14.229,25.073 C14.533,24.492 15.204,24.117 15.947,24.053 C13.978,24.007 11.968,23.220 9.814,21.798 C8.041,20.626 7.205,18.214 6.824,15.867 C6.321,15.590 5.520,15.079 5.076,14.420 C4.409,13.263 4.898,11.302 6.532,11.406 C6.535,11.290 6.536,11.171 6.539,11.066 L4.230,11.066 L4.230,9.390 L5.584,9.390 C5.753,5.701 7.953,2.515 10.999,1.006 L10.999,2.515 C10.999,2.850 11.168,3.018 11.506,3.018 L12.522,3.018 C12.860,3.018 13.029,2.850 13.029,2.515 L13.029,0.335 C13.537,0.168 14.044,-0.000 14.552,-0.000 L14.552,6.204 C14.552,6.539 14.721,6.707 15.060,6.707 L16.075,6.707 C16.413,6.707 16.583,6.539 16.583,6.204 L16.583,-0.000 L16.752,-0.000 C17.259,-0.000 17.598,0.168 18.105,0.168 L18.105,2.515 C18.105,2.850 18.275,3.018 18.613,3.018 L19.628,3.018 C19.967,3.018 20.136,2.850 20.136,2.515 L20.136,1.006 C23.351,2.515 25.551,5.701 25.720,9.390 L27.412,9.390 L27.412,11.066 L24.969,11.066 C24.966,11.694 24.982,12.594 25.043,13.917 C25.060,14.299 25.069,14.658 25.073,15.007 C25.425,15.123 26.145,15.208 26.397,14.085 C26.566,12.240 24.705,11.905 25.212,11.402 C26.904,11.234 27.412,13.246 26.735,14.420 C26.276,15.102 25.514,15.624 25.066,15.893 C24.969,18.539 24.181,20.253 21.151,22.301 C19.489,23.498 17.859,24.030 16.205,24.047 C16.623,24.053 17.054,24.151 17.447,24.381 C18.633,24.934 18.464,25.350 17.956,26.319 C17.447,27.288 17.278,27.842 17.278,27.842 L18.464,30.612 L22.021,24.242 ZM6.529,11.854 C6.177,12.230 5.347,12.743 5.584,13.917 C5.791,14.842 6.315,14.946 6.691,14.889 C6.563,13.766 6.527,12.708 6.529,11.854 ZM20.474,21.798 C23.859,19.450 24.197,17.606 24.028,14.420 C24.028,12.439 24.028,11.497 24.028,11.066 L7.593,11.066 C7.510,12.621 7.343,19.228 10.322,21.295 C14.044,23.642 17.090,23.977 20.474,21.798 Z" class="cls-1"/>
</svg>
