<!-- Generated by IcoMoon.io -->
<svg version="1.1" xmlns="http://www.w3.org/2000/svg" width="1024" height="1024" viewBox="0 0 1024 1024">
<title></title>

<path fill="#ffffff" d="M260.029 483.809c0-115.466 93.594-209.060 209.060-209.060s209.060 93.595 209.060 209.060c0 115.465-93.594 209.060-209.060 209.060s-209.060-93.595-209.060-209.060zM623.287 674.73l110.909 110.881 32.14-32.152-110.465-110.495c36.552-42.845 58.629-98.422 58.629-159.153 0-135.546-109.874-245.421-245.421-245.421s-245.419 109.874-245.419 245.421c0 135.545 109.874 245.421 245.421 245.421 58.415-0.001 112.068-20.416 154.206-54.497z"></path>
</svg>
