<svg xmlns="http://www.w3.org/2000/svg" xmlns:xlink="http://www.w3.org/1999/xlink" preserveAspectRatio="xMidYMid" width="20" height="20" viewBox="0 0 20 20">
  <defs>
    <style>
      .cls-1 {
        fill: gray;
        fill-rule: evenodd;
      }
    </style>
  </defs>
  <path d="M18.345,18.005 L2.256,18.005 C0.706,17.965 2.032,16.477 2.032,16.477 L9.099,4.164 C10.349,2.643 11.407,4.189 11.407,4.189 L18.452,16.477 C19.750,17.853 18.345,18.005 18.345,18.005 ZM11.547,7.710 C11.547,7.083 10.931,6.627 10.307,6.627 C9.683,6.627 9.007,7.083 9.007,7.710 L9.007,12.439 C9.007,13.066 9.644,13.574 10.268,13.574 C10.892,13.574 11.547,13.066 11.547,12.439 L11.547,7.710 ZM10.346,14.189 C9.640,14.189 9.068,14.763 9.068,15.472 C9.068,16.180 9.640,16.755 10.346,16.755 C11.051,16.755 11.623,16.180 11.623,15.472 C11.623,14.763 11.051,14.189 10.346,14.189 Z" class="cls-1"/>
</svg>
