<svg xmlns="http://www.w3.org/2000/svg" xmlns:xlink="http://www.w3.org/1999/xlink" preserveAspectRatio="xMidYMid" width="20" height="20" viewBox="0 0 20 20">
  <defs>
    <style>
      .cls-1 {
        fill: gray;
        fill-rule: evenodd;
      }
    </style>
  </defs>
  <path d="M16.619,19.000 L16.619,17.621 L15.930,17.621 L15.930,19.000 L15.240,19.000 L15.240,17.621 L14.551,17.621 L14.551,19.000 L13.904,19.000 L13.904,16.931 L13.215,16.931 L13.215,19.000 L12.525,19.000 L12.525,17.621 L11.836,17.621 L11.836,19.000 L11.189,19.000 L11.189,17.621 L10.499,17.621 L10.499,19.000 L9.810,19.000 L9.810,16.931 L9.120,16.931 L9.120,19.000 L8.431,19.000 L8.431,17.621 L7.784,17.621 L7.784,19.000 L7.094,19.000 L7.094,17.621 L6.405,17.621 L6.405,19.000 L5.715,19.000 L5.715,16.931 L5.068,16.931 L5.068,19.000 L3.000,19.000 L3.000,1.993 L20.007,19.000 L16.619,19.000 ZM5.715,8.514 L5.715,16.242 L13.443,16.242 L5.715,8.514 Z" class="cls-1"/>
</svg>
