<svg xmlns="http://www.w3.org/2000/svg" xmlns:xlink="http://www.w3.org/1999/xlink" preserveAspectRatio="xMidYMid" width="20" height="20" viewBox="0 0 20 20">
  <defs>
    <style>
      .cls-1 {
        fill: gray;
        fill-rule: evenodd;
      }
    </style>
  </defs>
  <path d="M18.901,17.424 L18.428,17.901 C18.297,18.033 18.086,18.033 17.955,17.901 L17.107,17.026 C16.642,17.322 16.093,17.500 15.500,17.500 L4.000,17.500 C2.343,17.500 1.000,16.157 1.000,14.500 L1.000,6.500 C1.000,4.843 2.343,3.500 4.000,3.500 L9.500,3.500 L9.500,8.000 L16.000,8.000 L16.000,3.550 C17.418,3.789 18.500,5.014 18.500,6.500 L18.500,14.500 C18.500,15.089 18.324,15.634 18.031,16.098 L18.901,16.946 C19.032,17.078 19.032,17.292 18.901,17.424 ZM10.000,13.500 L9.000,13.500 L9.000,11.500 L10.000,11.500 L10.000,10.500 L9.000,10.500 L9.000,9.500 L8.000,9.500 L8.000,10.500 L4.500,10.500 L4.500,9.500 L3.500,9.500 L3.500,10.500 L2.500,10.500 L2.500,11.500 L3.500,11.500 L3.500,13.500 L2.500,13.500 L2.500,14.500 L3.500,14.500 L3.500,15.500 L4.500,15.500 L4.500,14.500 L8.000,14.500 L8.000,15.500 L9.000,15.500 L9.000,14.500 L10.000,14.500 L10.000,13.500 ZM14.521,10.002 C12.840,10.002 11.499,11.308 11.499,12.918 C11.499,14.529 12.840,15.882 14.521,15.882 C14.938,15.882 15.333,15.799 15.689,15.649 L15.737,15.612 L17.107,17.026 C17.480,16.788 17.794,16.472 18.031,16.098 L16.763,14.862 L16.806,14.829 C17.247,14.309 17.499,13.640 17.499,12.918 C17.499,11.308 16.203,10.002 14.521,10.002 ZM14.516,14.831 C13.424,14.831 12.553,13.983 12.553,12.937 C12.553,11.891 13.424,11.044 14.516,11.044 C15.608,11.044 16.456,11.891 16.456,12.937 C16.456,13.983 15.608,14.831 14.516,14.831 ZM4.500,11.500 L8.000,11.500 L8.000,13.500 L4.500,13.500 L4.500,11.500 ZM10.500,3.500 L15.000,3.500 L15.000,7.000 L10.500,7.000 L10.500,3.500 Z" class="cls-1"/>
</svg>
