<svg xmlns="http://www.w3.org/2000/svg" xmlns:xlink="http://www.w3.org/1999/xlink" preserveAspectRatio="xMidYMid" width="42" height="42" viewBox="0 0 42 42">
  <defs>
    <style>
      .cls-1 {
        fill: #f4f6f8;
        stroke: #989898;
        stroke-linejoin: round;
        stroke-width: 2px;
        fill-rule: evenodd;
      }
    </style>
  </defs>
  <path d="M33.742,19.420 C32.590,19.420 31.494,19.184 30.498,18.761 L26.296,22.938 L38.630,35.200 C39.963,36.524 39.963,38.672 38.630,39.996 C37.298,41.320 35.138,41.320 33.806,39.996 L21.472,27.734 L9.138,39.996 C7.805,41.320 5.645,41.320 4.313,39.996 C2.981,38.672 2.981,36.524 4.313,35.200 L16.647,22.938 L9.932,16.262 L4.719,21.296 L-0.000,16.605 L5.232,11.590 L3.826,10.192 C2.494,8.868 2.494,6.721 3.826,5.396 C5.158,4.072 7.318,4.072 8.650,5.396 L10.144,6.881 L13.213,3.938 L19.820,3.938 L21.236,5.346 L14.826,11.536 L21.472,18.142 L25.891,13.749 C25.629,12.949 25.483,12.097 25.483,11.210 C25.483,6.676 29.181,3.000 33.742,3.000 C34.009,3.000 34.921,3.938 34.921,3.938 C34.921,3.938 35.177,4.862 34.449,5.815 C33.001,7.711 29.533,9.952 32.090,12.383 C35.031,15.179 36.913,12.398 38.697,10.975 C39.605,10.250 40.584,10.037 40.584,10.037 C40.584,10.037 42.000,10.715 42.000,11.210 C42.000,15.744 38.303,19.420 33.742,19.420 Z" class="cls-1"/>
</svg>
