<svg xmlns="http://www.w3.org/2000/svg" xmlns:xlink="http://www.w3.org/1999/xlink" preserveAspectRatio="xMidYMid" width="26" height="32" viewBox="0 0 26 32">
  <defs>
    <style>
      .cls-1, .cls-2 {
        font-size: 32px;
      }

      .cls-2 {
        fill: #fff;
        text-anchor: middle;
        font-family: "FZYOUH_503L--GB1-4";
      }

      .cls-3 {
        fill: #e93030;
        fill-rule: evenodd;
      }
    </style>
  </defs>
  <g>
    <text x="335" y="165" class="cls-1"><tspan x="335" class="cls-2">登    录</tspan></text>
    <path d="M22.000,14.000 L22.000,8.000 C22.000,3.583 17.307,-0.000 13.001,-0.000 C8.692,-0.000 4.000,3.583 4.000,8.000 L4.000,14.000 L-0.000,14.000 L-0.000,32.000 L26.000,32.000 L26.000,14.000 L22.000,14.000 ZM6.000,8.000 C6.000,4.324 9.415,2.000 13.000,2.000 C16.584,2.000 20.000,4.324 20.000,8.000 L20.000,14.000 L6.000,14.000 L6.000,8.000 ZM24.000,30.000 L2.000,30.000 L2.000,16.000 L24.000,16.000 L24.000,30.000 Z" class="cls-3"/>
    <path d="M25.000,-64.000 L22.975,-64.000 C22.982,-64.167 23.000,-64.331 23.000,-64.500 C23.000,-70.851 17.851,-76.000 11.500,-76.000 C5.149,-76.000 -0.000,-70.851 -0.000,-64.500 C-0.000,-64.331 0.018,-64.167 0.025,-64.000 L-2.000,-64.000 C-2.000,-69.757 1.578,-74.663 6.616,-76.630 C3.414,-78.374 1.240,-81.780 1.240,-85.695 C1.240,-91.386 5.834,-96.000 11.500,-96.000 C17.166,-96.000 21.760,-91.386 21.760,-85.695 C21.760,-81.780 19.586,-78.374 16.384,-76.630 C21.422,-74.663 25.000,-69.757 25.000,-64.000 ZM19.600,-85.695 C19.600,-90.188 15.973,-93.831 11.500,-93.831 C7.026,-93.831 3.400,-90.188 3.400,-85.695 C3.400,-81.202 7.026,-77.560 11.500,-77.560 C15.973,-77.560 19.600,-81.202 19.600,-85.695 Z" class="cls-3"/>
  </g>
</svg>
