<svg xmlns="http://www.w3.org/2000/svg" xmlns:xlink="http://www.w3.org/1999/xlink" preserveAspectRatio="xMidYMid" width="54" height="54" viewBox="0 0 54 54">
  <defs>
    <style>
      .cls-1 {
        fill: #fff;
        fill-rule: evenodd;
      }
    </style>
  </defs>
  <path d="M47.999,46.000 L5.999,46.000 C3.790,46.000 1.999,44.209 1.999,42.000 L1.999,18.000 C1.999,15.791 3.790,14.000 5.999,14.000 L14.441,14.000 L19.150,9.281 L19.154,9.293 C19.885,8.502 20.921,8.000 22.083,8.000 L32.083,8.000 C33.180,8.000 34.172,8.441 34.895,9.156 L34.904,9.164 C34.909,9.170 34.914,9.174 34.919,9.179 L39.728,14.000 L47.999,14.000 C50.209,14.000 52.000,15.791 52.000,18.000 L52.000,42.000 C52.000,44.209 50.209,46.000 47.999,46.000 ZM50.000,18.000 C50.000,16.896 49.102,16.000 47.999,16.000 L39.728,16.000 L38.898,16.000 L38.312,15.412 L33.503,10.592 C33.112,10.205 32.612,10.000 32.083,10.000 L22.083,10.000 C21.530,10.000 21.011,10.230 20.622,10.650 L18.327,13.133 L18.278,12.986 L15.857,15.412 L15.270,16.000 L14.441,16.000 L5.999,16.000 C4.897,16.000 3.999,16.896 3.999,18.000 L3.999,42.000 C3.999,43.101 4.897,44.000 5.999,44.000 L47.999,44.000 C49.102,44.000 50.000,43.101 50.000,42.000 L50.000,18.000 ZM26.999,42.000 C19.820,42.000 13.999,36.178 13.999,28.998 C13.999,21.818 19.820,16.000 26.999,16.000 C34.179,16.000 39.999,21.818 39.999,28.998 C39.999,36.178 34.179,42.000 26.999,42.000 ZM26.999,18.000 C20.934,18.000 15.999,22.933 15.999,28.998 C15.999,35.064 20.934,40.000 26.999,40.000 C33.065,40.000 37.999,35.064 37.999,28.998 C37.999,22.933 33.065,18.000 26.999,18.000 ZM26.999,38.000 C22.028,38.000 17.999,33.968 17.999,28.998 C17.999,24.027 22.028,20.000 26.999,20.000 C31.971,20.000 35.999,24.027 35.999,28.998 C35.999,33.968 31.971,38.000 26.999,38.000 ZM26.999,22.000 C23.140,22.000 19.999,25.138 19.999,28.998 C19.999,32.857 23.140,36.000 26.999,36.000 C30.859,36.000 33.999,32.857 33.999,28.998 C33.999,25.138 30.859,22.000 26.999,22.000 Z" class="cls-1"/>
</svg>
