<svg xmlns="http://www.w3.org/2000/svg" xmlns:xlink="http://www.w3.org/1999/xlink" preserveAspectRatio="xMidYMid" width="110" height="110" viewBox="0 0 110 110">
  <defs>
    <style>
      .cls-1 {
        fill: #ff6b50;
        fill-rule: evenodd;
      }
    </style>
  </defs>
  <path d="M55.000,110.000 C24.624,110.000 -0.000,85.376 -0.000,55.000 C-0.000,24.624 24.624,-0.000 55.000,-0.000 C85.376,-0.000 110.000,24.624 110.000,55.000 C110.000,85.376 85.376,110.000 55.000,110.000 ZM41.639,78.078 C41.639,78.598 41.830,79.049 42.207,79.429 C42.584,79.809 43.032,80.000 43.549,80.000 L58.821,80.000 C59.337,80.000 59.785,79.809 60.162,79.429 C60.541,79.049 60.729,78.598 60.729,78.078 L60.729,72.950 L41.639,72.950 L41.639,78.078 ZM41.639,71.297 L60.729,71.297 L60.729,56.015 L41.639,56.015 L41.639,71.297 ZM76.000,34.841 C76.000,34.521 75.882,34.271 75.643,34.091 C75.484,33.950 75.284,33.881 75.046,33.881 C74.966,33.881 74.896,33.891 74.837,33.911 L61.475,36.793 C61.256,36.833 61.077,36.943 60.937,37.124 C60.799,37.303 60.729,37.503 60.729,37.724 L51.722,37.724 C52.000,37.103 52.139,36.462 52.139,35.802 C52.139,34.481 51.672,33.350 50.738,32.409 C49.804,31.468 48.680,30.998 47.367,30.998 C46.055,30.998 44.931,31.468 43.996,32.409 C43.062,33.350 42.595,34.481 42.595,35.802 C42.595,36.683 42.843,37.544 43.340,38.385 C42.226,38.744 41.147,39.270 40.105,39.961 C39.060,40.651 38.215,41.322 37.569,41.972 C36.922,42.623 36.321,43.323 35.764,44.074 C35.208,44.825 34.835,45.360 34.646,45.680 C34.457,46.001 34.313,46.260 34.214,46.461 C33.975,46.941 33.939,47.432 34.109,47.932 C34.278,48.432 34.591,48.803 35.048,49.043 C35.307,49.183 35.595,49.253 35.913,49.253 C36.708,49.253 37.276,48.902 37.614,48.203 C37.694,48.042 37.833,47.796 38.031,47.466 C38.230,47.137 38.633,46.601 39.239,45.860 C39.845,45.119 40.501,44.454 41.208,43.863 C41.914,43.274 42.824,42.743 43.937,42.272 C45.050,41.802 46.193,41.567 47.368,41.567 L48.322,41.567 L48.322,44.900 C46.354,45.500 44.748,46.646 43.505,48.337 C42.262,50.029 41.639,51.936 41.639,54.057 L41.639,54.363 L60.729,54.363 L60.729,54.057 C60.729,51.756 60.009,49.724 58.567,47.962 C57.125,46.201 55.301,45.090 53.094,44.629 L53.094,41.567 L60.729,41.567 C60.729,41.787 60.799,41.987 60.937,42.167 C61.077,42.348 61.256,42.458 61.475,42.497 L74.837,45.380 C74.897,45.400 74.966,45.411 75.046,45.411 C75.284,45.411 75.484,45.340 75.643,45.201 C75.882,45.020 76.000,44.770 76.000,44.450 L76.000,34.841 ZM47.368,37.724 C46.850,37.724 46.402,37.534 46.025,37.153 C45.646,36.773 45.458,36.323 45.458,35.803 C45.458,35.283 45.646,34.831 46.025,34.451 C46.404,34.071 46.851,33.881 47.368,33.881 C47.885,33.881 48.331,34.071 48.710,34.451 C49.087,34.831 49.276,35.283 49.276,35.803 C49.276,36.323 49.087,36.773 48.710,37.153 C48.331,37.534 47.885,37.724 47.368,37.724 Z" class="cls-1"/>
</svg>
