<svg xmlns="http://www.w3.org/2000/svg" xmlns:xlink="http://www.w3.org/1999/xlink" preserveAspectRatio="xMidYMid" width="110" height="110" viewBox="0 0 110 110">
  <defs>
    <style>
      .cls-1 {
        fill: #01b6ad;
        fill-rule: evenodd;
      }
    </style>
  </defs>
  <path d="M55.000,110.000 C24.624,110.000 -0.000,85.376 -0.000,55.000 C-0.000,24.624 24.624,-0.000 55.000,-0.000 C85.376,-0.000 110.000,24.624 110.000,55.000 C110.000,85.376 85.376,110.000 55.000,110.000 ZM75.185,39.143 C75.185,35.751 72.420,32.995 69.029,32.995 L39.151,32.995 C35.760,32.995 33.005,35.751 33.005,39.143 L33.005,71.837 C33.005,75.230 35.760,77.996 39.151,77.996 L47.018,77.996 C47.794,77.996 48.421,77.369 48.421,76.583 C48.630,75.131 45.417,73.718 45.417,73.718 C28.718,58.236 44.771,28.657 72.370,43.223 C72.370,43.223 72.987,44.626 73.773,44.626 C74.549,44.626 75.185,43.999 75.185,43.223 L75.185,39.143 ZM77.582,75.558 L71.197,69.171 C72.291,67.877 73.176,66.435 73.842,64.873 C74.718,62.793 75.165,60.584 75.165,58.306 C75.165,56.028 74.718,53.819 73.842,51.739 C72.987,49.730 71.774,47.919 70.222,46.377 C68.681,44.824 66.870,43.611 64.861,42.755 C62.783,41.879 60.575,41.432 58.297,41.432 C56.019,41.432 53.812,41.879 51.733,42.755 C49.724,43.601 47.924,44.824 46.372,46.377 C44.830,47.919 43.607,49.730 42.752,51.739 C41.877,53.819 41.429,56.028 41.429,58.306 C41.429,60.584 41.886,62.793 42.752,64.873 C43.607,66.872 44.820,68.683 46.372,70.235 C47.924,71.777 49.724,72.991 51.733,73.847 C53.812,74.732 56.029,75.180 58.297,75.180 C60.575,75.180 62.783,74.722 64.861,73.847 C66.443,73.180 67.895,72.285 69.208,71.171 L75.593,77.548 C75.861,77.827 76.219,77.966 76.587,77.966 C76.945,77.966 77.304,77.837 77.582,77.548 C78.129,76.991 78.129,76.106 77.582,75.558 ZM58.307,72.355 C50.559,72.355 44.254,66.057 44.254,58.306 C44.254,50.555 50.559,44.247 58.307,44.247 C66.055,44.247 72.360,50.555 72.360,58.306 C72.360,66.057 66.055,72.355 58.307,72.355 ZM55.254,48.953 C54.925,48.257 54.100,47.959 53.394,48.287 C50.997,49.441 49.087,51.431 48.033,53.888 C47.725,54.605 48.053,55.431 48.759,55.739 C48.938,55.819 49.127,55.858 49.306,55.858 C49.843,55.858 50.360,55.540 50.589,55.013 C51.375,53.172 52.797,51.690 54.597,50.824 C55.293,50.496 55.582,49.660 55.254,48.953 ZM67.696,56.873 C66.930,56.873 66.303,57.500 66.303,58.276 C66.303,62.823 62.633,66.524 58.108,66.524 C57.342,66.524 56.716,67.151 56.716,67.927 C56.716,68.703 57.342,69.330 58.108,69.330 C61.042,69.330 63.797,68.186 65.866,66.096 C67.944,64.007 69.088,61.231 69.088,58.286 C69.088,57.500 68.472,56.873 67.696,56.873 Z" class="cls-1"/>
</svg>
