<svg xmlns="http://www.w3.org/2000/svg" xmlns:xlink="http://www.w3.org/1999/xlink" preserveAspectRatio="xMidYMid" width="110" height="110" viewBox="0 0 110 110">
  <defs>
    <style>
      .cls-1 {
        fill: #ffaf10;
        fill-rule: evenodd;
      }
    </style>
  </defs>
  <path d="M55.000,110.000 C24.624,110.000 -0.000,85.376 -0.000,55.000 C-0.000,24.624 24.624,-0.000 55.000,-0.000 C85.376,-0.000 110.000,24.624 110.000,55.000 C110.000,85.376 85.376,110.000 55.000,110.000 ZM63.356,63.677 L58.137,73.345 L56.360,69.169 C56.360,69.169 56.638,68.311 57.359,66.824 C58.137,65.393 58.359,64.764 56.638,63.906 C56.027,63.563 55.416,63.391 54.805,63.391 C57.248,63.391 59.636,62.590 62.079,60.760 C66.521,57.670 67.687,55.096 67.798,51.092 C68.464,50.634 69.575,49.890 70.241,48.860 C71.241,47.087 70.519,43.998 68.020,44.284 C67.299,45.027 70.019,45.542 69.797,48.345 C69.408,50.005 68.353,49.890 67.798,49.719 C67.798,49.204 67.798,48.632 67.798,48.059 C67.687,46.057 67.687,44.741 67.687,43.769 L71.241,43.769 L71.241,41.252 L68.798,41.252 C68.520,35.645 65.300,30.840 60.580,28.552 L60.580,30.840 C60.580,31.355 60.302,31.583 59.803,31.583 L58.359,31.583 C57.859,31.583 57.581,31.355 57.581,30.840 L57.581,27.293 C56.860,27.293 56.360,27.007 55.583,27.007 L55.361,27.007 L55.361,36.389 C55.361,36.904 55.083,37.190 54.583,37.190 L53.139,37.190 C52.640,37.190 52.362,36.904 52.362,36.389 L52.362,27.007 C51.640,27.007 50.863,27.293 50.141,27.522 L50.141,30.840 C50.141,31.355 49.864,31.583 49.364,31.583 L47.920,31.583 C47.420,31.583 47.143,31.355 47.143,30.840 L47.143,28.552 C42.701,30.840 39.425,35.645 39.203,41.252 L37.204,41.252 L37.204,43.769 L40.591,43.769 C40.591,43.940 40.591,44.112 40.591,44.284 C38.203,44.112 37.481,47.087 38.425,48.860 C39.092,49.833 40.258,50.634 41.035,51.034 C41.590,54.581 42.812,58.243 45.422,60.016 C48.586,62.133 51.529,63.334 54.417,63.391 C53.306,63.506 52.362,64.078 51.918,64.936 C51.140,66.423 53.139,67.281 53.139,68.082 C53.139,68.940 51.640,73.117 51.640,73.117 C51.640,73.117 51.640,74.203 49.919,71.057 C48.142,67.911 46.143,63.277 46.143,63.277 C35.982,66.194 30.985,71.858 30.985,80.268 C30.985,83.643 76.793,84.901 78.015,78.380 C78.792,72.316 64.855,60.760 63.356,63.677 ZM46.143,59.272 C41.757,56.126 42.034,46.114 42.145,43.769 L66.299,43.769 C66.299,44.398 66.299,45.828 66.299,48.860 C66.521,53.666 66.021,56.469 61.080,60.016 C56.082,63.277 51.640,62.819 46.143,59.272 ZM39.203,48.059 C38.870,46.286 40.091,45.542 40.591,44.970 C40.591,46.229 40.646,47.831 40.813,49.547 C40.258,49.661 39.480,49.490 39.203,48.059 Z" class="cls-1"/>
</svg>
