<svg xmlns="http://www.w3.org/2000/svg" xmlns:xlink="http://www.w3.org/1999/xlink" preserveAspectRatio="xMidYMid" width="36" height="31" viewBox="0 0 36 31">
  <defs>
    <style>
      .cls-1 {
        fill: #2d3339;
        fill-rule: evenodd;
      }
    </style>
  </defs>
  <g>
    <path d="M20.532,13.705 L26.620,19.794 L24.794,21.620 L18.716,15.542 L17.959,15.542 L17.917,7.750 L20.500,7.750 L20.532,13.705 ZM20.500,31.000 C16.364,31.000 12.615,29.369 9.836,26.729 L12.012,25.220 C14.283,27.205 17.247,28.417 20.500,28.417 C27.634,28.417 33.417,22.633 33.417,15.500 C33.417,8.366 27.634,2.583 20.500,2.583 C13.366,2.583 7.583,8.366 7.583,15.500 C7.583,17.010 7.856,18.453 8.332,19.801 L6.079,21.153 C5.391,19.400 5.000,17.497 5.000,15.500 C5.000,6.939 11.940,-0.000 20.500,-0.000 C29.060,-0.000 36.000,6.939 36.000,15.500 C36.000,24.060 29.060,31.000 20.500,31.000 Z" class="cls-1"/>
    <path d="M-0.000,15.000 L14.000,15.000 L8.000,22.000 L-0.000,15.000 Z" class="cls-1"/>
  </g>
</svg>
