<svg xmlns="http://www.w3.org/2000/svg" width="16" height="16" viewBox="0 0 16 16">
  <metadata><?xpacket begin="﻿" id="W5M0MpCehiHzreSzNTczkc9d"?>
<x:xmpmeta xmlns:x="adobe:ns:meta/" x:xmptk="Adobe XMP Core 5.6-c138 79.159824, 2016/09/14-01:09:01        ">
   <rdf:RDF xmlns:rdf="http://www.w3.org/1999/02/22-rdf-syntax-ns#">
      <rdf:Description rdf:about=""/>
   </rdf:RDF>
</x:xmpmeta>
<?xpacket end="w"?></metadata>
<defs>
    <style>
      .cls-1 {
        fill: #afafaf;
      }
    </style>
  </defs>
  <path id="形状_9" data-name="形状 9" class="cls-1" d="M14.856,12.806a3.106,3.106,0,0,1,.111.613,1.3,1.3,0,0,1,.035.3,4.894,4.894,0,0,1-.05.709,1.492,1.492,0,0,1-.154.507,0.959,0.959,0,0,1-.425.239A20.89,20.89,0,0,1,8.29,16a31.171,31.171,0,0,1-6.243-.644A2.608,2.608,0,0,1,1.272,15.1a1.311,1.311,0,0,1-.244-0.778A3.552,3.552,0,0,1,1.094,13.1a1.394,1.394,0,0,1,.446-0.89,2.724,2.724,0,0,1,.841-0.475c0.324-.118,1.82-0.669,2.164-0.765a2.934,2.934,0,0,0,.9-0.414,2.39,2.39,0,0,0,.484-0.4,1.14,1.14,0,0,0,.239-0.382,1.21,1.21,0,0,0,.067-0.4c0-.137-0.006-0.286-0.015-0.448a0.908,0.908,0,0,0-.23-0.587C5.855,8.2,5.706,8.059,5.534,7.91A0.953,0.953,0,0,1,5.325,7.6c-0.061-.134-0.114-0.268-0.163-0.4C5.113,7.036,5.063,6.871,5.013,6.7A0.631,0.631,0,0,1,4.8,6.591a1.324,1.324,0,0,1-.2-0.223,1.358,1.358,0,0,1-.18-0.414,1.267,1.267,0,0,1-.05-0.486A1.474,1.474,0,0,1,4.46,5.1a1.137,1.137,0,0,1,.18-0.336A8,8,0,0,1,4.7,3.55a7.111,7.111,0,0,1,.215-1.082,3.642,3.642,0,0,1,.454-1.032A3.069,3.069,0,0,1,6,.727,3.127,3.127,0,0,1,7.433.066,4.266,4.266,0,0,1,8.141,0a3.034,3.034,0,0,1,.827.112A4.025,4.025,0,0,1,9.7.4a3.526,3.526,0,0,1,.608.389,2.367,2.367,0,0,1,.434.438,3.766,3.766,0,0,1,.559,1.119,7.019,7.019,0,0,1,.259,1.15,7.836,7.836,0,0,1,.075,1.272,0.4,0.4,0,0,1,.163.193,1.116,1.116,0,0,1,.1.286,1.381,1.381,0,0,1,.006.429,1.859,1.859,0,0,1-.14.531,1.092,1.092,0,0,1-.216.311,0.712,0.712,0,0,1-.282.174c-0.038.168-.085,0.335-0.134,0.491-0.05.137-.108,0.274-0.169,0.4a1.117,1.117,0,0,1-.215.311,2.318,2.318,0,0,1-.254.214,1.418,1.418,0,0,0-.209.18,0.751,0.751,0,0,0-.149.23,1.411,1.411,0,0,0-.09.326,2.054,2.054,0,0,0-.03.485,1.436,1.436,0,0,0,.12.491,1.4,1.4,0,0,0,.343.47,2.23,2.23,0,0,0,.641.4,6.166,6.166,0,0,0,.812.277c0.294,0.081,1.473.622,1.745,0.734a3.066,3.066,0,0,1,.727.419,1.552,1.552,0,0,1,.449.684h0ZM8.24,14.968a0.508,0.508,0,0,0,.23-0.1,2.243,2.243,0,0,0,.306-0.246,2.937,2.937,0,0,0,.259-0.286,0.411,0.411,0,0,0,.11-0.224A2.252,2.252,0,0,0,9.1,13.774C9.073,13.615,9.035,13.438,9,13.251s-0.082-.379-0.119-0.566S8.8,12.35,8.773,12.231a1.574,1.574,0,0,0,.254-0.276,0.546,0.546,0,0,0,.1-0.311,0.491,0.491,0,0,0-.081-0.262,1.014,1.014,0,0,0-.187-0.23C8.781,11.078,8.7,11,8.609,10.929H7.867a2,2,0,0,0-.254.224,1.133,1.133,0,0,0-.163.224,0.5,0.5,0,0,0-.076.254,0.478,0.478,0,0,0,.11.255,1.783,1.783,0,0,0,.274.3c-0.029.1-.069,0.234-0.119,0.414s-0.1.367-.14,0.566-0.084.382-.119,0.557a2.1,2.1,0,0,0-.05.389,0.421,0.421,0,0,0,.11.224,2.212,2.212,0,0,0,.268.286,2.623,2.623,0,0,0,.306.246,0.558,0.558,0,0,0,.224.1h0Z"/>
</svg>
