<?xml version="1.0" encoding="utf-8"?>
<!-- Generator: Adobe Illustrator 21.0.0, SVG Export Plug-In . SVG Version: 6.00 Build 0)  -->
<svg version="1.1" id="图层_1" xmlns="http://www.w3.org/2000/svg" xmlns:xlink="http://www.w3.org/1999/xlink" x="0px" y="0px"
	 viewBox="0 0 16 16" style="enable-background:new 0 0 16 16;" xml:space="preserve">
<style type="text/css">
	.st0{fill:#afafaf;}
</style>
<path id="形状_8" class="st0" d="M12.5,5.5h-1.9V4.9c0-1.1-0.3-3-2.6-3C6.6,1.8,5.5,2.9,5.4,4.4c0,0.1,0,0.3,0,0.4v0.7H3.5V4.9
	C3.3,2.3,5.1,0.2,7.4,0C7.6,0,7.8,0,8,0c2.3-0.2,4.3,1.7,4.5,4.2c0,0.2,0,0.4,0,0.6V5.5L12.5,5.5z M9.3,10.5c0-0.7-0.6-1.3-1.3-1.2
	c-0.7,0-1.2,0.5-1.3,1.2c0,0.5,0.3,0.9,0.6,1.1v1.4c0,0.4,0.4,0.7,0.7,0.6c0.3,0,0.5-0.3,0.6-0.6v-1.4C9,11.3,9.3,10.9,9.3,10.5
	C9.3,10.5,9.3,10.5,9.3,10.5z M14.5,8v6.2c-0.1,1.1-0.9,1.9-1.9,1.9h-9c-1,0.1-1.9-0.8-1.9-1.9V8c0.1-1.1,0.9-1.9,1.9-1.8h9
	C13.5,6.1,14.4,6.9,14.5,8L14.5,8z"/>
</svg>
