<svg xmlns="http://www.w3.org/2000/svg" xmlns:xlink="http://www.w3.org/1999/xlink" preserveAspectRatio="xMidYMid" width="30" height="37" viewBox="0 0 30 37">
  <defs>
    <style>
      .cls-1 {
        fill: #0085de;
        fill-rule: evenodd;
      }
    </style>
  </defs>
  <path d="M25.463,28.155 L25.463,32.508 L21.020,32.508 L21.020,37.000 L0.001,37.000 L0.001,8.937 L4.445,8.937 L4.445,4.469 L9.006,4.469 L9.006,-0.000 L30.001,-0.000 L30.001,28.155 L25.463,28.155 ZM4.000,26.000 L17.000,26.000 L17.000,25.000 L4.000,25.000 L4.000,26.000 ZM4.000,22.000 L17.000,22.000 L17.000,21.000 L4.000,21.000 L4.000,22.000 ZM4.000,18.000 L17.000,18.000 L17.000,17.000 L4.000,17.000 L4.000,18.000 ZM4.000,13.000 L4.000,14.000 L17.000,14.000 L17.000,13.000 L4.000,13.000 ZM5.902,5.904 L5.902,8.937 L21.020,8.937 L21.020,31.165 L24.006,31.165 L24.006,5.904 L5.902,5.904 ZM28.543,1.435 L10.463,1.435 L10.463,4.469 L25.463,4.469 L25.463,26.719 L28.543,26.719 L28.543,1.435 Z" class="cls-1"/>
</svg>
