<svg xmlns="http://www.w3.org/2000/svg" xmlns:xlink="http://www.w3.org/1999/xlink" preserveAspectRatio="xMidYMid" width="42" height="42" viewBox="0 0 42 42">
  <defs>
    <style>
      .cls-1, .cls-2 {
        fill: #ff0000;
      }

      .cls-2, .cls-3 {
        fill-rule: evenodd;
      }

      .cls-3 {
        fill: #f13b3c;
        stroke: #1f6db4;
        stroke-linejoin: round;
        stroke-width: 1px;
        filter: url(#color-overlay-1);
      }
    </style>

    <filter id="color-overlay-1" filterUnits="userSpaceOnUse">
      <feFlood flood-color="#fff"/>
      <feComposite operator="in" in2="SourceGraphic"/>
      <feBlend in2="SourceGraphic" result="solidFill"/>
    </filter>
  </defs>
  <g>
    <rect x="1" y="36.531" width="40" height="5.469" class="cls-1"/>
    <path d="M3.759,1.000 L21.690,1.000 L21.690,37.900 L3.759,37.900 L3.759,1.000 Z" class="cls-2"/>
    <path d="M20.310,11.933 L38.241,17.400 L38.241,37.900 L20.310,37.900 L20.310,11.933 Z" class="cls-2"/>
    <g style="fill: #f13b3c; filter: url(#color-overlay-1)">
      <path d="M29.965,33.800 L29.965,28.333 L35.483,28.333 L35.483,33.800 L29.965,33.800 ZM29.965,20.133 L35.483,20.133 L35.483,25.600 L29.965,25.600 L29.965,20.133 ZM23.069,28.333 L28.586,28.333 L28.586,33.800 L23.069,33.800 L23.069,28.333 ZM23.069,20.133 L28.586,20.133 L28.586,25.600 L23.069,25.600 L23.069,20.133 ZM13.414,28.333 L18.931,28.333 L18.931,33.800 L13.414,33.800 L13.414,28.333 ZM13.414,20.133 L18.931,20.133 L18.931,25.600 L13.414,25.600 L13.414,20.133 ZM13.414,11.933 L18.931,11.933 L18.931,17.400 L13.414,17.400 L13.414,11.933 ZM13.414,3.733 L18.931,3.733 L18.931,9.200 L13.414,9.200 L13.414,3.733 ZM6.517,28.333 L12.034,28.333 L12.034,33.800 L6.517,33.800 L6.517,28.333 ZM6.517,20.133 L12.034,20.133 L12.034,25.600 L6.517,25.600 L6.517,20.133 ZM6.517,11.933 L12.034,11.933 L12.034,17.400 L6.517,17.400 L6.517,11.933 ZM6.517,3.733 L12.034,3.733 L12.034,9.200 L6.517,9.200 L6.517,3.733 Z" id="path-1" style=" filter: none;" class="cls-3"/>
    </g>
    <use xlink:href="#path-1" style="stroke: #ff0000; filter: none; fill: none"/>
  </g>
</svg>
