<?xml version="1.0" encoding="utf-8"?>
<!-- Generator: Adobe Illustrator 21.0.0, SVG Export Plug-In . SVG Version: 6.00 Build 0)  -->
<svg version="1.1" id="图层_1" xmlns="http://www.w3.org/2000/svg" xmlns:xlink="http://www.w3.org/1999/xlink" x="0px" y="0px"
	 viewBox="0 0 64 64" style="enable-background:new 0 0 64 64;" xml:space="preserve">
<style type="text/css">
	.st0{fill:#E9CC48;}
	.st1{fill:#3B6694;}
	.st2{fill:#6A8EA9;}
	.st3{fill:#FB9B5F;}
	.st4{fill:#83B2CE;}
	.st5{fill:#EBD9A3;}
	.st6{fill:#99DDFF;}
	.st7{fill:#FDFDFD;}
	.st8{fill:#62C6FF;}
	.st9{fill:#F1FAFF;}
	.st10{fill:#9EDBFF;stroke:#6EA4DA;}
</style>
<title>Group</title>
<desc>Created with Sketch.</desc>
<g id="Page-1">
	<g id="Artboard" transform="translate(-218.000000, -134.000000)">
		<g id="Group" transform="translate(218.000000, 134.000000)">
			<path id="Shape" class="st0" d="M10,14.2c0,0,0.1,0,0.2,0.1c0.1,0.1,0.1,1,0.4,1.3c0.3,0.3,1.3,0.1,1.3,0.4c0,0.3-1,0.3-1.3,0.6
				c-0.3,0.3-0.1,1.4-0.5,1.3c-0.3,0-0.1-0.9-0.5-1.3c-0.4-0.4-1.3-0.3-1.3-0.6c0-0.3,0.9-0.1,1.3-0.5C9.9,15.2,9.7,14.2,10,14.2z"
				/>
			<path id="Shape_1_" class="st1" d="M7.2,25.4C7.2,25.4,7.2,25.4,7.2,25.4c0.1,0.1,0.2,0.7,0.3,0.8c0.2,0.2,0.8,0.1,0.8,0.3
				c0,0.2-0.6,0.2-0.8,0.4c-0.2,0.2-0.1,0.8-0.3,0.8c-0.2,0-0.1-0.5-0.3-0.8s-0.8-0.2-0.8-0.4c0-0.2,0.6-0.1,0.8-0.3
				C7.1,26,7,25.4,7.2,25.4z"/>
			<path id="Shape_2_" class="st2" d="M56.7,20C56.7,20,56.8,20,56.7,20c0.1,0.1,0.2,0.7,0.4,0.9c0.2,0.2,0.9,0.1,0.9,0.3
				c0,0.2-0.6,0.2-0.9,0.4c-0.2,0.2-0.1,1-0.4,0.9c-0.2,0-0.1-0.6-0.3-0.9c-0.3-0.3-0.9-0.2-0.9-0.4s0.6-0.1,0.9-0.4
				C56.6,20.6,56.5,20,56.7,20z"/>
			<path id="Shape_3_" class="st3" d="M47,11.5C47,11.5,47.1,11.5,47,11.5c0.1,0.1,0.2,0.7,0.4,0.9c0.2,0.2,0.9,0.1,0.9,0.3
				c0,0.2-0.6,0.2-0.9,0.4c-0.2,0.2-0.1,1-0.4,0.9c-0.2,0-0.1-0.6-0.3-0.9c-0.3-0.3-0.9-0.2-0.9-0.4c0-0.2,0.6-0.1,0.9-0.4
				C46.9,12.2,46.8,11.5,47,11.5z"/>
			<circle id="Oval" class="st4" cx="20.3" cy="10" r="1"/>
			<circle id="Oval_1_" class="st5" cx="53.4" cy="25" r="0.6"/>
			<circle id="Oval_2_" class="st6" cx="31" cy="33" r="20.9"/>
			<path id="Shape_4_" class="st7" d="M44.6,40.3c0,0.9-0.7,1.6-1.6,1.6l-24.2,0c-0.9,0-1.6-0.7-1.6-1.6l0.1-15.4
				c0-0.9,0.7-1.6,1.6-1.6h19.7c1.6,1.4,3.7,3.5,6,5.4L44.6,40.3z"/>
			<path id="Shape_5_" class="st8" d="M44.8,28.3c0,0.3-0.3,0.5-0.6,0.5L39,28.7c-0.3,0-0.5-0.3-0.5-0.6l0.1-4.4
				c0-0.3,0.3-0.5,0.6-0.5L44.8,28.3z"/>
			<circle id="Oval_3_" class="st9" cx="36.9" cy="39.4" r="4.9"/>
			<path id="Shape_6_" class="st8" d="M35.5,27.6c0,0.3-0.2,0.5-0.5,0.5H21.1c-0.3,0-0.5-0.2-0.5-0.5l0,0c0-0.3,0.2-0.5,0.5-0.5H35
				C35.3,27.1,35.5,27.3,35.5,27.6L35.5,27.6z"/>
			<path id="Shape_7_" class="st8" d="M27.6,31.3c0,0.3-0.2,0.5-0.5,0.5h-6c-0.3,0-0.5-0.2-0.5-0.5l0,0c0-0.3,0.2-0.5,0.5-0.5h6
				C27.4,30.8,27.6,31,27.6,31.3L27.6,31.3z"/>
			<path id="Shape_8_" class="st8" d="M27.6,35c0,0.3-0.2,0.5-0.5,0.5h-6c-0.3,0-0.5-0.2-0.5-0.5l0,0c0-0.3,0.2-0.5,0.5-0.5h6
				C27.4,34.5,27.6,34.7,27.6,35L27.6,35z"/>
			<path id="Shape_9_" class="st10" d="M43.4,44.8c-0.2-0.2-0.5-0.3-0.7-0.1l-0.8-1c1.1-1.2,1.7-2.7,1.7-4.4c0-3.7-3-6.7-6.7-6.7
				s-6.7,3-6.7,6.7c0,3.7,3,6.7,6.7,6.7c1.4,0,2.7-0.4,3.8-1.2l0.8,0.9c-0.2,0.2-0.3,0.5-0.1,0.7l6.2,7.4c0.2,0.3,0.6,0.3,0.9,0.1
				l1.2-1c0.3-0.2,0.3-0.6,0.1-0.9L43.4,44.8z M36.8,44.3c-2.7,0-4.9-2.2-4.9-4.9c0-2.7,2.2-4.9,4.9-4.9c2.7,0,4.9,2.2,4.9,4.9
				C41.8,42.1,39.5,44.3,36.8,44.3z"/>
			<path id="Shape_10_" class="st8" d="M34.3,41.8c-1.5-1.4-1.3-3.6-0.2-4.7c0.1,0.1,0.1,0.1,0.2,0.2c0.2,0.2,0.3,0.3,0.5,0.5
				c-1,1.2-0.7,2.5,0.1,3.4C34.7,41.4,34.5,41.6,34.3,41.8z"/>
		</g>
	</g>
</g>
</svg>
