<svg xmlns="http://www.w3.org/2000/svg" xmlns:xlink="http://www.w3.org/1999/xlink" preserveAspectRatio="xMidYMid" width="31" height="31" viewBox="0 0 31 31">
  <defs>
    <style>
      .cls-1 {
        fill: #e93030;
        fill-rule: evenodd;
      }
    </style>
  </defs>
  <path d="M31.000,5.887 C31.000,11.304 31.000,16.721 31.000,22.138 C26.596,25.065 22.271,28.071 17.869,31.000 C11.929,28.020 5.953,25.074 -0.000,22.107 C-0.000,16.700 -0.000,11.294 -0.000,5.887 C4.664,4.088 9.270,2.174 13.905,0.345 C14.223,0.219 14.663,-0.005 14.865,0.000 C15.101,0.006 15.505,0.245 15.856,0.376 C20.927,2.267 25.998,4.035 31.000,5.887 L31.000,5.887 ZM11.706,3.883 C16.155,5.627 20.593,7.381 25.054,9.112 C26.095,8.568 27.130,8.017 28.151,7.453 C23.711,5.847 19.294,4.217 14.865,2.599 C13.825,3.040 12.735,3.430 11.706,3.883 L11.706,3.883 ZM4.150,6.920 C8.978,8.782 13.762,10.687 18.550,12.588 C19.778,11.940 21.021,11.307 22.205,10.615 C17.569,8.831 12.977,7.003 8.362,5.198 C6.971,5.786 5.499,6.291 4.150,6.920 L4.150,6.920 ZM2.416,7.640 C2.416,11.941 2.416,16.241 2.416,20.541 C7.164,22.947 12.076,25.408 16.847,27.743 C17.159,27.896 17.495,28.162 17.807,28.119 C17.951,23.374 17.828,18.391 17.869,13.590 C12.726,11.588 7.638,9.531 2.477,7.547 C2.439,7.559 2.414,7.587 2.416,7.640 L2.416,7.640 Z" class="cls-1"/>
</svg>
