<svg xmlns="http://www.w3.org/2000/svg" xmlns:xlink="http://www.w3.org/1999/xlink" preserveAspectRatio="xMidYMid" width="48" height="48" viewBox="0 0 48 48">
  <defs>
    <style>
      .cls-1 {
        fill: #e93030;
        fill-rule: evenodd;
      }
    </style>
  </defs>
  <path d="M42.000,46.000 L6.000,46.000 C4.343,46.000 3.000,44.657 3.000,43.000 L3.000,42.000 C3.000,40.343 4.343,39.000 6.000,39.000 L42.000,39.000 C43.657,39.000 45.000,40.343 45.000,42.000 L45.000,43.000 C45.000,44.657 43.657,46.000 42.000,46.000 ZM41.000,35.000 L37.000,35.000 C35.343,35.000 34.000,33.657 34.000,32.000 L34.000,6.000 C34.000,4.343 35.343,3.000 37.000,3.000 L41.000,3.000 C42.657,3.000 44.000,4.343 44.000,6.000 L44.000,32.000 C44.000,33.657 42.657,35.000 41.000,35.000 ZM26.000,35.000 L22.000,35.000 C20.343,35.000 19.000,33.657 19.000,32.000 L19.000,16.000 C19.000,14.343 20.343,13.000 22.000,13.000 L26.000,13.000 C27.657,13.000 29.000,14.343 29.000,16.000 L29.000,32.000 C29.000,33.657 27.657,35.000 26.000,35.000 ZM11.000,35.000 L7.000,35.000 C5.343,35.000 4.000,33.657 4.000,32.000 L4.000,25.000 C4.000,23.343 5.343,22.000 7.000,22.000 L11.000,22.000 C12.657,22.000 14.000,23.343 14.000,25.000 L14.000,32.000 C14.000,33.657 12.657,35.000 11.000,35.000 Z" class="cls-1"/>
</svg>
