<svg xmlns="http://www.w3.org/2000/svg" xmlns:xlink="http://www.w3.org/1999/xlink" preserveAspectRatio="xMidYMid" width="40" height="40" viewBox="0 0 40 40">
  <defs>
    <style>
      .cls-1 {
        fill: #0085de;
        fill-rule: evenodd;
      }
    </style>
  </defs>
  <path d="M40.010,19.995 L32.253,27.745 L32.253,22.553 L25.330,22.553 L25.330,17.211 L32.253,17.211 L32.253,12.147 L40.010,19.995 ZM22.811,14.692 L17.469,14.692 L17.469,7.769 L12.277,7.769 L20.027,0.012 L27.875,7.769 L22.811,7.769 L22.811,14.692 ZM14.746,17.415 L14.746,22.758 L7.822,22.758 L7.822,27.821 L0.003,20.036 L7.822,12.223 L7.822,17.415 L14.746,17.415 ZM17.264,25.276 L22.607,25.276 L22.607,32.200 L27.799,32.200 L19.986,40.019 L12.201,32.200 L17.264,32.200 L17.264,25.276 Z" class="cls-1"/>
</svg>
