<svg xmlns="http://www.w3.org/2000/svg" xmlns:xlink="http://www.w3.org/1999/xlink" preserveAspectRatio="xMidYMid" width="35" height="32" viewBox="0 0 35 32">
  <defs>
    <style>
      .cls-1 {
        fill: #2d3339;
        fill-rule: evenodd;
      }
    </style>
  </defs>
  <path d="M31.761,24.555 L16.997,24.555 L8.689,31.995 L8.688,24.555 L3.257,24.555 C1.458,24.555 -0.000,23.105 -0.000,21.316 L-0.000,3.230 C-0.000,1.441 1.458,-0.009 3.257,-0.009 L31.761,-0.009 C33.560,-0.009 35.018,1.441 35.018,3.230 L35.018,21.316 C35.018,23.105 33.560,24.555 31.761,24.555 ZM8.769,10.154 C7.965,10.154 7.313,10.802 7.313,11.602 C7.313,12.402 7.965,13.050 8.769,13.050 C9.573,13.050 10.225,12.402 10.225,11.602 C10.225,10.802 9.573,10.154 8.769,10.154 ZM14.595,10.093 C13.790,10.093 13.138,10.742 13.138,11.542 C13.138,12.342 13.790,12.990 14.595,12.990 C15.399,12.990 16.051,12.342 16.051,11.542 C16.051,10.742 15.399,10.093 14.595,10.093 ZM20.451,10.123 C19.646,10.123 18.994,10.772 18.994,11.572 C18.994,12.372 19.646,13.020 20.451,13.020 C21.255,13.020 21.907,12.372 21.907,11.572 C21.907,10.772 21.255,10.123 20.451,10.123 ZM26.246,10.154 C25.442,10.154 24.790,10.802 24.790,11.602 C24.790,12.402 25.442,13.050 26.246,13.050 C27.051,13.050 27.703,12.402 27.703,11.602 C27.703,10.802 27.051,10.154 26.246,10.154 Z" class="cls-1"/>
</svg>
