<svg xmlns="http://www.w3.org/2000/svg" xmlns:xlink="http://www.w3.org/1999/xlink" preserveAspectRatio="xMidYMid" width="50" height="50" viewBox="0 0 50 50">
  <defs>
    <style>
      .cls-1 {
        fill: #fff;
        stroke: red;
        stroke-width: 3px;
      }

      .cls-2 {
        fill: red;
        fill-rule: evenodd;
      }
    </style>
  </defs>
  <g>
    <circle cx="25" cy="25" r="25" class="cls-1"/>
    <path d="M32.717,19.987 C30.826,20.102 29.823,22.049 29.709,25.831 C29.823,29.555 30.826,31.474 32.717,31.588 C34.721,31.532 35.753,30.529 35.810,28.581 L39.420,28.581 C39.248,32.076 37.014,33.851 32.717,33.909 C28.420,33.793 26.214,31.102 26.100,25.831 C26.271,20.446 28.476,17.666 32.717,17.495 C36.956,17.552 39.190,19.385 39.420,22.995 L35.810,22.995 C35.695,21.048 34.664,20.044 32.717,19.987 ZM18.451,24.284 C18.507,24.284 18.651,24.313 18.881,24.370 C22.604,25.115 24.437,26.576 24.381,28.752 C24.323,32.076 22.060,33.793 17.592,33.909 C13.467,33.909 11.432,32.162 11.490,28.666 L14.928,28.666 C14.928,30.501 15.815,31.474 17.592,31.588 C19.654,31.532 20.714,30.844 20.771,29.526 C20.771,28.438 19.768,27.693 17.764,27.291 C17.476,27.235 17.276,27.177 17.162,27.120 C13.667,26.318 11.920,24.857 11.920,22.737 C12.092,19.471 14.297,17.724 18.537,17.495 C21.975,17.666 23.779,19.299 23.951,22.393 L20.685,22.393 C20.628,20.790 19.768,19.987 18.107,19.987 C16.445,20.102 15.586,20.790 15.529,22.049 C15.414,23.252 16.389,23.998 18.451,24.284 Z" class="cls-2"/>
  </g>
</svg>
