<svg width="200" height="200" viewBox="0 0 200 200" version="1.1" xmlns="http://www.w3.org/2000/svg" xmlns:xlink="http://www.w3.org/1999/xlink"><g class="transform-group"><g transform="scale(0.1953125, 0.1953125)">

<defs>
    <style>
      .cls-1 {
        fill: #f4f6f8;
        stroke: #989898;
        stroke-width: 2px;
        fill-rule: evenodd;
      }
    </style>
  </defs>

<path d="M784.945799 309.498429 239.054201 309.498429C228.293106 309.498429 219.578959 318.504997 219.578959 329.558513s8.714147 20.001599 19.475241 20.001599l545.891599 0C795.706894 349.560112 804.421041 340.553544 804.421041 329.558513S795.706894 309.498429 784.945799 309.498429zM804.421041 208.028328 219.578959 208.028328c-10.819579 0-19.533726 8.948084-19.533726 20.001599C200.045234 239.083443 208.759381 247.973042 219.578959 247.973042l584.842081 0c10.819579 0 19.533726-8.8896 19.533726-20.001599C823.954766 216.976412 815.240619 208.028328 804.421041 208.028328zM969.580444 416.699983 892.673711 129.2501c-0.175453-0.70181-0.350905-1.286653-0.643326-1.988463-12.106231-31.639957-29.768462-52.694272-76.731281-52.694272L207.414244 76.263407c-38.950483 0-61.817808 15.732252-76.555828 52.40185C130.565995 129.484037 130.273574 130.302816 130.098121 131.06311L53.834714 424.595351C47.927809 430.385288 44.126335 437.695814 44.126335 446.176024l0 459.978297c0 21.990062 25.674567 43.278314 47.079788 43.278314l857.846365 0c21.40522 0 30.821178-21.288252 30.821178-43.278314L979.873665 446.176024C979.873665 433.367982 976.540065 423.074762 969.580444 416.699983zM745.936832 741.462791 278.063168 741.462791l0-116.968416 467.873665 0L745.936832 741.462791zM687.452624 449.04175c0 0-41.348335 0.526358-61.759324 0.526358L408.073562 449.568108C387.662574 449.568108 336.547376 449.04175 336.547376 449.04175L102.610543 449.04175l64.800503-306.340282c7.953852-19.475241 15.498315-26.376378 40.061683-26.376378l607.943343-1.754526c27.019704 0 32.458736 6.901137 40.003198 26.317894L921.389457 449.04175 687.452624 449.04175 Z" class="cls-1"/></path></g></g></svg>
