<?xml version="1.0" encoding="utf-8"?>
<!-- Generator: Adobe Illustrator 21.0.0, SVG Export Plug-In . SVG Version: 6.00 Build 0)  -->
<svg version="1.1" id="图层_1" xmlns="http://www.w3.org/2000/svg" xmlns:xlink="http://www.w3.org/1999/xlink" x="0px" y="0px"
	 viewBox="0 0 128 128" style="enable-background:new 0 0 128 128;" xml:space="preserve">
<style type="text/css">
	.st0{fill:#FFFFFF;}
</style>
<path class="st0" d="M82.3,57.8c0-2.1-1.6-3.7-3.7-3.7c-2,0-3.7,1.7-3.7,3.7v31c0,2.1,1.6,3.7,3.7,3.7c2,0,3.7-1.7,3.7-3.7V57.8z
	 M67.7,57.8c0-2.1-1.6-3.7-3.7-3.7c-2,0-3.7,1.7-3.7,3.7v31c0,2.1,1.6,3.7,3.7,3.7c2,0,3.7-1.7,3.7-3.7V57.8z M53,57.8
	c0-2.1-1.6-3.7-3.7-3.7c-2,0-3.7,1.7-3.7,3.7v31c0,2.1,1.6,3.7,3.7,3.7c2,0,3.7-1.7,3.7-3.7V57.8z M89.6,50.3v7.4v38.5
	c0,2.1-1.6,3.7-3.7,3.7H42.1c-2,0-3.7-1.7-3.7-3.7V57.8v-7.4v-3.7h51.2V50.3z M34.8,39.2c0-2.1,1.6-3.7,3.7-3.7h18.3v-3.7
	c0-2.1,1.6-3.7,3.7-3.7h7.3c2,0,3.7,1.7,3.7,3.7v3.7h18.3c2,0,3.7,1.7,3.7,3.7v3.7H34.8V39.2z"/>
</svg>
