<svg xmlns="http://www.w3.org/2000/svg" xmlns:xlink="http://www.w3.org/1999/xlink" preserveAspectRatio="xMidYMid" width="40" height="40" viewBox="0 0 40 40">
  <defs>
    <style>
      .cls-1 {
        fill: #fff;
        fill-rule: evenodd;
      }
    </style>
  </defs>
  <path d="M20.500,39.000 C10.283,39.000 2.000,30.717 2.000,20.500 C2.000,10.283 10.283,2.000 20.500,2.000 C30.717,2.000 39.000,10.283 39.000,20.500 C39.000,30.717 30.717,39.000 20.500,39.000 ZM20.500,5.000 C11.940,5.000 5.000,11.940 5.000,20.500 C5.000,24.240 6.325,27.670 8.531,30.348 L30.348,8.531 C27.670,6.325 24.240,5.000 20.500,5.000 ZM32.469,10.652 L10.652,32.469 C13.330,34.675 16.760,36.000 20.500,36.000 C29.060,36.000 36.000,29.060 36.000,20.500 C36.000,16.760 34.675,13.330 32.469,10.652 ZM32.574,18.279 C32.272,18.606 31.869,18.771 31.467,18.771 L31.467,18.771 C31.085,18.771 30.703,18.623 30.406,18.327 C29.879,17.802 29.311,17.337 28.724,16.907 L30.970,14.661 C31.509,15.085 32.034,15.532 32.528,16.024 C33.139,16.634 33.160,17.644 32.574,18.279 ZM29.160,22.284 C28.860,22.596 28.465,22.754 28.072,22.754 L28.072,22.754 C27.680,22.754 27.289,22.599 26.990,22.290 C26.373,21.651 25.681,21.119 24.938,20.693 L27.228,18.403 C27.913,18.872 28.559,19.413 29.153,20.028 C29.754,20.649 29.757,21.659 29.160,22.284 ZM25.699,26.331 C25.407,26.608 25.038,26.744 24.670,26.744 L24.670,26.744 C24.253,26.744 23.837,26.568 23.534,26.221 C22.822,25.403 21.828,24.927 20.779,24.852 L23.371,22.260 C24.287,22.677 25.121,23.292 25.806,24.078 C26.375,24.731 26.327,25.739 25.699,26.331 ZM22.354,29.074 C22.354,30.138 21.524,31.000 20.502,31.000 C19.479,31.000 18.649,30.138 18.649,29.074 C18.649,28.010 19.479,27.147 20.502,27.147 C21.524,27.147 22.354,28.010 22.354,29.074 ZM8.471,16.021 C11.716,12.783 15.987,11.000 20.502,11.000 C21.968,11.000 23.404,11.208 24.794,11.575 L22.082,14.288 C21.560,14.228 21.033,14.190 20.502,14.190 C16.784,14.190 13.265,15.657 10.595,18.323 C9.985,18.932 9.014,18.912 8.427,18.276 C7.840,17.640 7.861,16.630 8.471,16.021 ZM20.030,16.340 L14.834,21.536 C14.548,21.768 14.270,22.013 14.009,22.283 C13.409,22.904 12.438,22.901 11.841,22.277 C11.244,21.653 11.246,20.643 11.847,20.022 C14.046,17.748 16.938,16.461 20.030,16.340 Z" class="cls-1"/>
</svg>
