<?xml version="1.0" encoding="utf-8"?>
<!-- Generator: Adobe Illustrator 19.0.0, SVG Export Plug-In . SVG Version: 6.00 Build 0)  -->
<svg version="1.1" id="图层_1" xmlns="http://www.w3.org/2000/svg" xmlns:xlink="http://www.w3.org/1999/xlink" x="0px" y="0px"
	 viewBox="-197 320.9 200 200" style="enable-background:new -197 320.9 200 200;" xml:space="preserve">
<style type="text/css">
	.st0{fill:#BABABA;}
</style>
<path class="st0" d="M-137.6,439.6c0,22.4,18.2,40.6,40.6,40.6s40.6-18.2,40.6-40.6c0-22.4-18.2-40.6-40.6-40.6
	S-137.6,417.2-137.6,439.6z M-9.5,370.9h-43.8c-3.1-12.5-6.3-25-18.8-25h-50c-12.5,0-15.6,12.5-18.8,25h-43.8
	c-6.9,0-12.5,5.6-12.5,12.5v112.5c0,6.9,5.6,12.5,12.5,12.5h175c6.9,0,12.5-5.6,12.5-12.5V383.4C3,376.5-2.6,370.9-9.5,370.9z
	 M-97,495.1c-30.6,0-55.5-24.8-55.5-55.5s24.8-55.5,55.5-55.5s55.5,24.8,55.5,55.5S-66.4,495.1-97,495.1z M-9.5,408.4h-25v-12.5h25
	V408.4z"/>
</svg>
