<?xml version="1.0" encoding="UTF-8"?>
<svg width="9px" height="6px" viewBox="0 0 9 6" version="1.1" xmlns="http://www.w3.org/2000/svg" xmlns:xlink="http://www.w3.org/1999/xlink">
    <!-- Generator: Sketch 43.2 (39069) - http://www.bohemiancoding.com/sketch -->
    <title>Shape</title>
    <desc>Created with Sketch.</desc>
    <defs></defs>
    <g id="质量实测报表" stroke="none" stroke-width="1" fill="none" fill-rule="evenodd">
        <g id="1.01质量实测报表（计算方法）" transform="translate(-713.000000, -120.000000)" fill="#CCCCCC">
            <path d="M721.99,125.281648 C721.99,125.173191 721.952508,125.063603 721.877525,124.972093 L717.883516,120.184152 C717.786272,120.067786 717.639822,120 717.483998,120 C717.329346,120 717.181723,120.067786 717.085651,120.184152 L713.112731,124.951757 C712.935818,125.164153 712.970966,125.474838 713.191228,125.645432 C713.41149,125.816026 713.733682,125.782134 713.910595,125.569738 L717.485169,121.281153 L721.079661,125.591203 C721.256574,125.803599 721.578766,125.837492 721.799028,125.666898 C721.92439,125.568608 721.99,125.426258 721.99,125.281648 L721.99,125.281648 Z" id="Shape" transform="translate(717.495000, 122.887801) scale(1, -1) translate(-717.495000, -122.887801) "></path>
        </g>
    </g>
</svg>